<svg xmlns="http://www.w3.org/2000/svg" xmlns:xlink="http://www.w3.org/1999/xlink" xmlns:lucid="lucid" width="1809.7" height="1892.68"><g transform="translate(-2150.6675723269254 -669.5642743273368)" lucid:page-tab-id="0_0"><path d="M2000 500h2000v2500H2000z" fill="#f2f3f5"/><path d="M2172.17 806.77a40 40 0 0 1 40-40h1686.7a40 40 0 0 1 40 40v1693.97a40 40 0 0 1-40 40h-1686.7a40 40 0 0 1-40-40z" stroke="#fe7070" stroke-width="3" fill="#ffd9d9"/><path d="M3037.36 691.06c43.9 0 79.5 35.6 79.5 79.5s-35.6 79.5-79.5 79.5h-777c-43.9 0-79.5-35.6-79.5-79.5s35.6-79.5 79.5-79.5z" stroke="#000" stroke-opacity="0" stroke-width="3" fill="#fff"/><use xlink:href="#a" transform="matrix(1,0,0,1,2227.659814510355,699.0142743273368) translate(83.22222222222217 81.5)"/><use xlink:href="#b" transform="matrix(1,0,0,1,2227.659814510355,699.0142743273368) translate(398.4444444444444 81.5)"/><use xlink:href="#c" transform="matrix(1,0,0,1,2227.659814510355,699.0142743273368) translate(602.6666666666666 81.5)"/><path d="M2347.16 902a6 6 0 0 1 6-6h715.48a6 6 0 0 1 6 6v104.16a6 6 0 0 1-6 6h-715.48a6 6 0 0 1-6-6z" stroke="#3a414a" stroke-width="3"/><use xlink:href="#d" transform="matrix(1,0,0,1,2383.532546980321,901.8081353794985) translate(249.2469135802469 57.70138888888889)"/><use xlink:href="#e" transform="matrix(1,0,0,1,2383.532546980321,901.8081353794985) translate(318.2962962962963 57.70138888888889)"/><path d="M3830.14 910c27.17 0 49.2 22 49.2 49.18 0 27.17-22.03 49.2-49.2 49.2h-549.62c-27.16 0-49.2-22.03-49.2-49.2 0-27.16 22.04-49.2 49.2-49.2z" stroke="#3a414a" stroke-width="3" fill="#fff"/><use xlink:href="#f" transform="matrix(1,0,0,1,3263.7333333333336,914.9108863683186) translate(2.364197530864203 49.92013888888889)"/><use xlink:href="#g" transform="matrix(1,0,0,1,3263.7333333333336,914.9108863683186) translate(122.48765432098767 49.92013888888889)"/><use xlink:href="#h" transform="matrix(1,0,0,1,3263.7333333333336,914.9108863683186) translate(167.33950617283952 49.92013888888889)"/><use xlink:href="#i" transform="matrix(1,0,0,1,3263.7333333333336,914.9108863683186) translate(269.141975308642 49.92013888888889)"/><use xlink:href="#j" transform="matrix(1,0,0,1,3263.7333333333336,914.9108863683186) translate(329.6358024691358 49.92013888888889)"/><use xlink:href="#k" transform="matrix(1,0,0,1,3263.7333333333336,914.9108863683186) translate(398.68518518518516 49.92013888888889)"/><use xlink:href="#l" transform="matrix(1,0,0,1,3263.7333333333336,914.9108863683186) translate(469.37654320987656 49.92013888888889)"/><path d="M3103.27 963.42a6 6 0 0 1 0-8.48l15-15a2.42 2.42 0 0 1 4.14 1.7 5.85 5.85 0 0 0 5.86 5.85h49.45a5.85 5.85 0 0 0 5.86-5.86 2.42 2.42 0 0 1 4.14-1.7l15 15a6 6 0 0 1 0 8.48l-15 15.02a2.42 2.42 0 0 1-4.14-1.72 5.85 5.85 0 0 0-5.85-5.84h-49.44a5.85 5.85 0 0 0-5.85 5.84 2.42 2.42 0 0 1-4.12 1.72zM2705.48 1079.34a12.7 12.7 0 0 1 10.84 0l211.37 99.92a2.84 2.84 0 0 1 0 5.13l-211.38 99.9a12.7 12.7 0 0 1-10.84 0l-211.37-99.9a2.84 2.84 0 0 1 0-5.14z" stroke="#3a414a" stroke-width="3" fill="#fff"/><use xlink:href="#m" transform="matrix(1,0,0,1,2510.9043775229848,1087.2789955228068) translate(92.23956790123457 102.07638888888889)"/><use xlink:href="#n" transform="matrix(1,0,0,1,2510.9043775229848,1087.2789955228068) translate(235.5235185185185 102.07638888888889)"/><use xlink:href="#o" transform="matrix(1,0,0,1,2510.9043775229848,1087.2789955228068) translate(280.4617901234568 102.07638888888889)"/><path d="M2710.9 1015.66v41.97" stroke="#3a414a" stroke-width="4" fill="none"/><path d="M2712.88 1015.7h-3.95v-2.04h3.95z" stroke="#3a414a" stroke-width=".05" fill="#3a414a"/><path d="M2710.9 1072.62l-7.5-13h15z" stroke="#3a414a" stroke-width="4" fill="#3a414a"/><path d="M3103.27 1173.8a6 6 0 0 1 0-8.5l15-15a2.42 2.42 0 0 1 4.14 1.7 5.85 5.85 0 0 0 5.86 5.85h49.45a5.85 5.85 0 0 0 5.86-5.84 2.42 2.42 0 0 1 4.14-1.7l15 15a6 6 0 0 1 0 8.5l-15 15a2.42 2.42 0 0 1-4.14-1.7 5.85 5.85 0 0 0-5.85-5.86h-49.44a5.85 5.85 0 0 0-5.85 5.85 2.42 2.42 0 0 1-4.12 1.7zM3830.14 1120.8c27.17 0 49.2 22.03 49.2 49.2s-22.03 49.2-49.2 49.2h-549.62c-27.16 0-49.2-22.03-49.2-49.2s22.04-49.2 49.2-49.2z" stroke="#3a414a" stroke-width="3" fill="#fff"/><use xlink:href="#p" transform="matrix(1,0,0,1,3263.7333333333336,1125.729818463839) translate(21.981481481481467 49.92013888888889)"/><use xlink:href="#q" transform="matrix(1,0,0,1,3263.7333333333336,1125.729818463839) translate(182.37654320987653 49.92013888888889)"/><use xlink:href="#r" transform="matrix(1,0,0,1,3263.7333333333336,1125.729818463839) translate(234.2283950617284 49.92013888888889)"/><use xlink:href="#s" transform="matrix(1,0,0,1,3263.7333333333336,1125.729818463839) translate(292.820987654321 49.92013888888889)"/><use xlink:href="#t" transform="matrix(1,0,0,1,3263.7333333333336,1125.729818463839) translate(370.4259259259259 49.92013888888889)"/><use xlink:href="#u" transform="matrix(1,0,0,1,3263.7333333333336,1125.729818463839) translate(403.17901234567904 49.92013888888889)"/><use xlink:href="#v" transform="matrix(1,0,0,1,3263.7333333333336,1125.729818463839) translate(429.10493827160496 49.92013888888889)"/><path d="M2764.16 1420.74a6 6 0 0 1 6-6h298.48a6 6 0 0 1 6 6v104.16a6 6 0 0 1-6 6h-298.48a6 6 0 0 1-6-6z" stroke="#3a414a" stroke-width="3"/><use xlink:href="#w" transform="matrix(1,0,0,1,2779.6825469803202,1420.5495097212934) translate(0 57.70138888888889)"/><use xlink:href="#x" transform="matrix(1,0,0,1,2779.6825469803202,1420.5495097212934) translate(87.4567901234568 57.70138888888889)"/><use xlink:href="#y" transform="matrix(1,0,0,1,2779.6825469803202,1420.5495097212934) translate(114.24691358024693 57.70138888888889)"/><path d="M2912.33 1395.6l-3.47 1.9-35.95-66.32h4.5zm-55.17-101.75h-4.5l-30.2-55.73 3.47-1.88z" stroke="#008a0e" stroke-width=".05" fill="#008a0e"/><path d="M2825.96 1236.3l-3.48 1.87-1.03-1.9 3.58-1.7z" fill="#008a0e"/><path stroke="#008a0e" stroke-width=".05" fill="#008a0e"/><path d="M2917.74 1409.72l-12.8-7.84 13.2-7.15z" fill="#008a0e"/><path d="M2919.62 1413.2l-18.62-11.43 19.2-10.4zm-10.72-11.22l6.95 4.27.22-8.15z" stroke="#008a0e" stroke-width=".05" fill="#008a0e"/><use xlink:href="#z" transform="matrix(1,0,0,1,2835.7412411208493,1293.8498827507224) translate(0 24.888888888888893)"/><path d="M3103.27 1476.6a6 6 0 0 1 0-8.47l15-15.02a2.42 2.42 0 0 1 4.14 1.73 5.85 5.85 0 0 0 5.86 5.85h49.45a5.85 5.85 0 0 0 5.86-5.85 2.42 2.42 0 0 1 4.14-1.7l15 15a6 6 0 0 1 0 8.48l-15 15.03a2.42 2.42 0 0 1-4.14-1.72 5.85 5.85 0 0 0-5.85-5.84h-49.44a5.85 5.85 0 0 0-5.85 5.85 2.42 2.42 0 0 1-4.12 1.72zM3817.1 1410.6c34.38 0 62.23 27.86 62.23 62.22 0 34.37-27.86 62.23-62.22 62.23h-523.54c-34.37 0-62.23-27.86-62.23-62.23 0-34.36 27.86-62.22 62.23-62.22z" stroke="#3a414a" stroke-width="3" fill="#fff"/><use xlink:href="#A" transform="matrix(1,0,0,1,3263.7333333333336,1416.8227281367795) translate(54.69135802469134 28.420138888888893)"/><use xlink:href="#B" transform="matrix(1,0,0,1,3263.7333333333336,1416.8227281367795) translate(78.80246913580245 28.420138888888893)"/><use xlink:href="#C" transform="matrix(1,0,0,1,3263.7333333333336,1416.8227281367795) translate(102.91358024691357 28.420138888888893)"/><use xlink:href="#D" transform="matrix(1,0,0,1,3263.7333333333336,1416.8227281367795) translate(133.93827160493828 28.420138888888893)"/><use xlink:href="#E" transform="matrix(1,0,0,1,3263.7333333333336,1416.8227281367795) translate(296.320987654321 28.420138888888893)"/><use xlink:href="#F" transform="matrix(1,0,0,1,3263.7333333333336,1416.8227281367795) translate(344.6296296296297 28.420138888888893)"/><use xlink:href="#G" transform="matrix(1,0,0,1,3263.7333333333336,1416.8227281367795) translate(418.6913580246914 28.420138888888893)"/><use xlink:href="#H" transform="matrix(1,0,0,1,3263.7333333333336,1416.8227281367795) translate(470.54320987654324 28.420138888888893)"/><use xlink:href="#I" transform="matrix(1,0,0,1,3263.7333333333336,1416.8227281367795) translate(53.827160493827165 65.75347222222223)"/><use xlink:href="#J" transform="matrix(1,0,0,1,3263.7333333333336,1416.8227281367795) translate(191.92592592592592 65.75347222222223)"/><use xlink:href="#G" transform="matrix(1,0,0,1,3263.7333333333336,1416.8227281367795) translate(226.49382716049382 65.75347222222223)"/><use xlink:href="#K" transform="matrix(1,0,0,1,3263.7333333333336,1416.8227281367795) translate(278.3456790123457 65.75347222222223)"/><use xlink:href="#L" transform="matrix(1,0,0,1,3263.7333333333336,1416.8227281367795) translate(395.6172839506173 65.75347222222223)"/><use xlink:href="#M" transform="matrix(1,0,0,1,3263.7333333333336,1416.8227281367795) translate(440.46913580246917 65.75347222222223)"/><use xlink:href="#N" transform="matrix(1,0,0,1,3263.7333333333336,1416.8227281367795) translate(203.98648148148146 103.08680555555557)"/><path d="M3103.27 1739.8a6 6 0 0 1 0-8.5l15-15a2.42 2.42 0 0 1 4.14 1.7 5.85 5.85 0 0 0 5.86 5.85h49.45a5.85 5.85 0 0 0 5.86-5.84 2.42 2.42 0 0 1 4.14-1.7l15 15a6 6 0 0 1 0 8.5l-15 15a2.42 2.42 0 0 1-4.14-1.7 5.85 5.85 0 0 0-5.85-5.86h-49.44a5.85 5.85 0 0 0-5.85 5.85 2.42 2.42 0 0 1-4.12 1.7zM3839.33 1696c22.1 0 40 17.9 40 40s-17.9 40-40 40h-568c-22.1 0-40-17.9-40-40s17.9-40 40-40z" stroke="#3a414a" stroke-width="3" fill="#fff"/><use xlink:href="#O" transform="matrix(1,0,0,1,3263.7333333333336,1700.0000000000002) translate(59.8765432098765 42.88888888888889)"/><use xlink:href="#G" transform="matrix(1,0,0,1,3263.7333333333336,1700.0000000000002) translate(197.9753086419753 42.88888888888889)"/><use xlink:href="#P" transform="matrix(1,0,0,1,3263.7333333333336,1700.0000000000002) translate(249.82716049382714 42.88888888888889)"/><use xlink:href="#Q" transform="matrix(1,0,0,1,3263.7333333333336,1700.0000000000002) translate(379.11111111111114 42.88888888888889)"/><path d="M2733.7 1604.82a12.42 12.42 0 0 1 10.8 0l349.12 168.62a2.9 2.9 0 0 1 0 5.2l-349.13 168.63a12.42 12.42 0 0 1-10.8 0l-349.14-168.62a2.9 2.9 0 0 1 0-5.2z" stroke="#3a414a" stroke-width="3" fill="#fff"/><g><use xlink:href="#R" transform="matrix(1,0,0,1,2415.1517194249113,1619.5939648307592) translate(182.87907407407403 85.53541666666666)"/><use xlink:href="#S" transform="matrix(1,0,0,1,2415.1517194249113,1619.5939648307592) translate(199.41240740740736 85.53541666666666)"/><use xlink:href="#T" transform="matrix(1,0,0,1,2415.1517194249113,1619.5939648307592) translate(287.59018518518513 85.53541666666666)"/><use xlink:href="#U" transform="matrix(1,0,0,1,2415.1517194249113,1619.5939648307592) translate(318.405 85.53541666666666)"/><use xlink:href="#V" transform="matrix(1,0,0,1,2415.1517194249113,1619.5939648307592) translate(351.2938888888889 85.53541666666666)"/><use xlink:href="#W" transform="matrix(1,0,0,1,2415.1517194249113,1619.5939648307592) translate(385.66425925925927 85.53541666666666)"/><use xlink:href="#X" transform="matrix(1,0,0,1,2415.1517194249113,1619.5939648307592) translate(452.6864814814815 85.53541666666666)"/><use xlink:href="#Y" transform="matrix(1,0,0,1,2415.1517194249113,1619.5939648307592) translate(184.6272222222222 111.13541666666669)"/><use xlink:href="#Z" transform="matrix(1,0,0,1,2415.1517194249113,1619.5939648307592) translate(304.2124074074074 111.13541666666669)"/><use xlink:href="#T" transform="matrix(1,0,0,1,2415.1517194249113,1619.5939648307592) translate(364.18277777777774 111.13541666666669)"/><use xlink:href="#aa" transform="matrix(1,0,0,1,2415.1517194249113,1619.5939648307592) translate(394.9975925925926 111.13541666666669)"/><use xlink:href="#ab" transform="matrix(1,0,0,1,2415.1517194249113,1619.5939648307592) translate(434.93833333333333 111.13541666666669)"/><use xlink:href="#ac" transform="matrix(1,0,0,1,2415.1517194249113,1619.5939648307592) translate(130.07907407407401 136.73541666666668)"/><use xlink:href="#W" transform="matrix(1,0,0,1,2415.1517194249113,1619.5939648307592) translate(153.7827777777777 136.73541666666668)"/><use xlink:href="#ad" transform="matrix(1,0,0,1,2415.1517194249113,1619.5939648307592) translate(220.80499999999995 136.73541666666668)"/><use xlink:href="#ae" transform="matrix(1,0,0,1,2415.1517194249113,1619.5939648307592) translate(239.17537037037033 136.73541666666668)"/><use xlink:href="#Z" transform="matrix(1,0,0,1,2415.1517194249113,1619.5939648307592) translate(358.7605555555555 136.73541666666668)"/><use xlink:href="#T" transform="matrix(1,0,0,1,2415.1517194249113,1619.5939648307592) translate(418.73092592592593 136.73541666666668)"/><use xlink:href="#af" transform="matrix(1,0,0,1,2415.1517194249113,1619.5939648307592) translate(449.54574074074077 136.73541666666668)"/><use xlink:href="#ab" transform="matrix(1,0,0,1,2415.1517194249113,1619.5939648307592) translate(489.4864814814815 136.73541666666668)"/><use xlink:href="#ag" transform="matrix(1,0,0,1,2415.1517194249113,1619.5939648307592) translate(0.5629629629629562 162.33541666666667)"/><use xlink:href="#ah" transform="matrix(1,0,0,1,2415.1517194249113,1619.5939648307592) translate(18.340740740740735 162.33541666666667)"/><use xlink:href="#ad" transform="matrix(1,0,0,1,2415.1517194249113,1619.5939648307592) translate(99.46666666666667 162.33541666666667)"/><use xlink:href="#ai" transform="matrix(1,0,0,1,2415.1517194249113,1619.5939648307592) translate(117.83703703703705 162.33541666666667)"/><use xlink:href="#Z" transform="matrix(1,0,0,1,2415.1517194249113,1619.5939648307592) translate(237.42222222222222 162.33541666666667)"/><use xlink:href="#T" transform="matrix(1,0,0,1,2415.1517194249113,1619.5939648307592) translate(297.39259259259256 162.33541666666667)"/><use xlink:href="#aj" transform="matrix(1,0,0,1,2415.1517194249113,1619.5939648307592) translate(328.2074074074074 162.33541666666667)"/><use xlink:href="#V" transform="matrix(1,0,0,1,2415.1517194249113,1619.5939648307592) translate(354.0444444444444 162.33541666666667)"/><use xlink:href="#W" transform="matrix(1,0,0,1,2415.1517194249113,1619.5939648307592) translate(388.4148148148148 162.33541666666667)"/><use xlink:href="#ad" transform="matrix(1,0,0,1,2415.1517194249113,1619.5939648307592) translate(455.43703703703704 162.33541666666667)"/><use xlink:href="#ak" transform="matrix(1,0,0,1,2415.1517194249113,1619.5939648307592) translate(473.8074074074074 162.33541666666667)"/><use xlink:href="#al" transform="matrix(1,0,0,1,2415.1517194249113,1619.5939648307592) translate(593.3925925925926 162.33541666666667)"/><use xlink:href="#T" transform="matrix(1,0,0,1,2415.1517194249113,1619.5939648307592) translate(274.9975925925926 187.93541666666667)"/><use xlink:href="#am" transform="matrix(1,0,0,1,2415.1517194249113,1619.5939648307592) translate(305.8124074074074 187.93541666666667)"/><use xlink:href="#ab" transform="matrix(1,0,0,1,2415.1517194249113,1619.5939648307592) translate(344.56796296296295 187.93541666666667)"/><use xlink:href="#ac" transform="matrix(1,0,0,1,2415.1517194249113,1619.5939648307592) translate(100.09388888888891 213.53541666666666)"/><use xlink:href="#an" transform="matrix(1,0,0,1,2415.1517194249113,1619.5939648307592) translate(123.79759259259262 213.53541666666666)"/><use xlink:href="#ad" transform="matrix(1,0,0,1,2415.1517194249113,1619.5939648307592) translate(197.8716666666667 213.53541666666666)"/><use xlink:href="#ao" transform="matrix(1,0,0,1,2415.1517194249113,1619.5939648307592) translate(216.24203703703708 213.53541666666666)"/><use xlink:href="#Z" transform="matrix(1,0,0,1,2415.1517194249113,1619.5939648307592) translate(335.82722222222225 213.53541666666666)"/><use xlink:href="#T" transform="matrix(1,0,0,1,2415.1517194249113,1619.5939648307592) translate(395.7975925925926 213.53541666666666)"/><use xlink:href="#ap" transform="matrix(1,0,0,1,2415.1517194249113,1619.5939648307592) translate(426.61240740740743 213.53541666666666)"/><use xlink:href="#V" transform="matrix(1,0,0,1,2415.1517194249113,1619.5939648307592) translate(452.44944444444445 213.53541666666666)"/><use xlink:href="#aq" transform="matrix(1,0,0,1,2415.1517194249113,1619.5939648307592) translate(486.81981481481483 213.53541666666666)"/><use xlink:href="#ad" transform="matrix(1,0,0,1,2415.1517194249113,1619.5939648307592) translate(178.52351851851847 239.13541666666666)"/><use xlink:href="#ar" transform="matrix(1,0,0,1,2415.1517194249113,1619.5939648307592) translate(196.89388888888885 239.13541666666666)"/><use xlink:href="#Z" transform="matrix(1,0,0,1,2415.1517194249113,1619.5939648307592) translate(316.47907407407405 239.13541666666666)"/><use xlink:href="#T" transform="matrix(1,0,0,1,2415.1517194249113,1619.5939648307592) translate(376.44944444444445 239.13541666666666)"/><use xlink:href="#as" transform="matrix(1,0,0,1,2415.1517194249113,1619.5939648307592) translate(407.2642592592593 239.13541666666666)"/></g><path d="M2915.9 1533.13l-159.12 62.05" stroke="#3a414a" stroke-width="4" fill="none"/><path d="M2921.3 1533.15l-4.72 1.84-1-2.6h5.4z" stroke="#3a414a" stroke-width=".05" fill="#3a414a"/><path d="M2742.82 1600.63l9.38-11.7 5.45 13.97z" stroke="#3a414a" stroke-width="4" fill="#3a414a"/><path d="M2326.26 1416.6a6 6 0 0 1 6-6h235.48a6 6 0 0 1 6 6v104.16a6 6 0 0 1-6 6h-235.48a6 6 0 0 1-6-6z" stroke="#3a414a" stroke-width="3"/><g><use xlink:href="#w" transform="matrix(1,0,0,1,2338.6325469803214,1416.4086412940558) translate(31.21604938271605 57.70138888888889)"/><use xlink:href="#x" transform="matrix(1,0,0,1,2338.6325469803214,1416.4086412940558) translate(118.67283950617285 57.70138888888889)"/><use xlink:href="#at" transform="matrix(1,0,0,1,2338.6325469803214,1416.4086412940558) translate(145.462962962963 57.70138888888889)"/></g><path d="M2460.77 1393.33l-3.48-1.88 32.87-60.82h4.5zm95.02-175.8l-40.97 75.77h-4.5l41.98-77.65z" stroke="#e81313" stroke-width=".05" fill="#e81313"/><path d="M2556.8 1215.68l-1.04 1.9-3.47-1.88.9-1.7z" fill="#e81313"/><path stroke="#e81313" stroke-width=".05" fill="#e81313"/><path d="M2464.68 1397.72l-12.78 7.86-.42-15z" fill="#e81313"/><path d="M2468.63 1397.6l-18.6 11.46-.62-21.84zm-14.85 4.5l6.95-4.27-7.18-3.88z" stroke="#e81313" stroke-width=".05" fill="#e81313"/><g><use xlink:href="#au" transform="matrix(1,0,0,1,2467.1114545660066,1293.2995496113379) translate(0 24.888888888888893)"/></g><path d="M2251.47 2341.42a6 6 0 0 1 6-6h967.86a6 6 0 0 1 6 6v132a6 6 0 0 1-6 6h-967.86a6 6 0 0 1-6-6z" stroke="#3a414a" stroke-width="3" fill="#54c45e"/><g><use xlink:href="#av" transform="matrix(1,0,0,1,2300.4609994177217,2342.6189363357753) translate(327.1111111111111 72.625)"/><use xlink:href="#aw" transform="matrix(1,0,0,1,2300.4609994177217,2342.6189363357753) translate(442.44444444444446 72.625)"/></g><path d="M2445.74 1528.24v14a24 24 0 0 1-24 24h-187.77a24 24 0 0 0-24 24v796.17a21 21 0 0 0 21 21.02M2445.74 1528.3v-2.06" stroke="#3a414a" stroke-width="4" fill="none"/><path d="M2245.97 2407.42l-13 7.5v-15z" stroke="#3a414a" stroke-width="4" fill="#3a414a"/><path d="M2615.35 2027.2a6 6 0 0 1 6-6h235.48a6 6 0 0 1 6 6v104.15a6 6 0 0 1-6 6h-235.48a6 6 0 0 1-6-6z" stroke="#3a414a" stroke-width="3"/><g><use xlink:href="#w" transform="matrix(1,0,0,1,2627.72427142622,2026.9952256558215) translate(14.79629629629629 57.70138888888889)"/><use xlink:href="#x" transform="matrix(1,0,0,1,2627.72427142622,2026.9952256558215) translate(102.25308641975309 57.70138888888889)"/><use xlink:href="#ax" transform="matrix(1,0,0,1,2627.72427142622,2026.9952256558215) translate(129.04320987654322 57.70138888888889)"/></g><path d="M2740.78 1954.22v46.48M2740.78 1954.28v-2.06" stroke="#3a414a" stroke-width="4" fill="none"/><path d="M2740.78 2015.7l-7.5-13h15z" stroke="#3a414a" stroke-width="4" fill="#3a414a"/><path d="M2740.65 2145.3l.67 169.63M2740.65 2145.35v-2.05" stroke="#3a414a" stroke-width="4" fill="none"/><path d="M2741.4 2329.92l-7.57-12.96 15-.06z" stroke="#3a414a" stroke-width="4" fill="#3a414a"/><path d="M2525.24 1071.03l10.1-8.42 3.7-2.85 3.37-2.36 3.04-1.86 2.7-1.34 2.86-1.52 3.03-1.68 3.2-1.85 3.36-2.02 3.53-2.02 3.7-2 3.88-2.03 4.05-2.02 4.37-1.86 4.72-1.7 5.05-1.5 5.37-1.35 6.9-1.35 8.42-1.35 9.93-1.34 11.44-1.34 13.98-1 16.5-.68 19.02-.34h21.55l18.85.34 16.16.67 13.47 1 10.77 1.36 9.1 1.2 7.4 1 5.72.84 4.03.67 3.7.68 3.38.68 3.04.67 2.7.68 3.7 1.18 4.7 1.7 5.73 2.18 6.73 2.7 6.07 2.5 5.38 2.37 4.7 2.2 4.06 2 3.88 2.03 3.7 2.02 3.54 2.02 3.36 2.02 3.2 2.02 3.03 2.02 2.87 2.02 2.7 2.02 3.2 3.03 3.7 4.04 4.2 5.05 4.72 6.06 4.2 5.22 3.7 4.38 3.2 3.53 2.7 2.7 3.03 3.37 3.36 4.04 3.7 4.73 4.04 5.38 3.36 4.73 2.7 4.04 2.02 3.37 1.34 2.7 1.18 2.68 1 2.7.86 2.7.67 2.68.84 2.53 1.02 2.36 1.18 2.17 1.35 2.02 1.17 2.18 1 2.36.86 2.53.67 2.7.84 3.7 1 4.7 1.18 5.73 1.35 6.73 1 8.08.68 9.44.35 10.78v12.12l-.17 9.42-.34 6.74-.5 4.04-.68 1.35-.67 1.5-.68 1.68-.68 1.86-.67 2.02-.84 2.02-1 2.02-1.2 2.02-1.34 2.02-1.2 2.02-1 2.02-.84 2.02-.67 2.02-.85 1.85-1 1.68-1.2 1.52-1.34 1.34-1.67 1.53-2.02 1.68-2.35 1.86-2.7 2.02-2.68 1.86-2.7 1.68-2.7 1.52-2.7 1.34-2.85 1.35-3.03 1.35-3.2 1.34-3.37 1.35-3.2 1.5-3.03 1.7-2.86 1.85-2.7 2.02-2.7 1.85-2.68 1.67-2.7 1.52-2.7 1.34-3.7 1.68-4.7 2.02-5.73 2.36-6.74 2.7-6.07 2.18-5.4 1.68-4.7 1.18-4.04.67-4.05.52-4.04.34-4.03.16h-4.04l-3.87.17-3.7.33-3.54.5-3.37.68-3.36.5-3.38.35-3.37.17h-3.36l-3.38.17-3.37.32-3.37.5-3.36.68-3.2.68-3.03.67-2.87.67-2.7.68-3.03.5-3.36.34-3.7.16h-4.05l-3.7.17-3.38.34-3.03.52-2.7.67-2.7.5-2.7.33-2.68.17h-2.7l-2.86.17-3.03.33-3.2.5-3.36.68-5.4.5-7.4.34-9.43.17h-11.44l-9.94-.35-8.4-.67-6.92-1-5.38-1.36-4.72-1.34-4.04-1.35-3.36-1.35-2.7-1.34-2.7-1.18-2.68-1-2.7-.85-2.7-.67-2.52-.84-2.35-1.02-2.2-1.18-2.02-1.34-2.2-1.35-2.35-1.34-2.52-1.34-2.7-1.35-2.85-1.35-3.03-1.34-3.2-1.35-3.36-1.35-3.37-1.68-3.38-2.02-3.36-2.36-3.37-2.7-3.88-3.02-4.38-3.37-4.88-3.7-5.4-4.04-6.22-5.23-7.07-6.4-7.9-7.57-8.77-8.76-6.9-7.24-5.05-5.72-3.2-4.2-1.34-2.7-1.5-2.7-1.7-2.7-1.84-2.68-2.02-2.7-2.02-2.86-2.02-3.03-2.03-3.2-2-3.35-2.03-3.2-2.02-3.03-2.02-2.87-2.02-2.7-1.86-2.68-1.68-2.7-1.52-2.7-1.34-2.68-1.35-2.54-1.35-2.36-1.34-2.18-1.35-2.02-1.36-2.53-1.34-3.03-1.35-3.53-1.35-4.03-1.18-3.37-1-2.7-.85-2-.67-1.36-.5-1.35-.34-1.36-.17-1.34v-1.35l-.18-1.5-.34-1.7-.5-1.85-.67-2.02-.5-2.2-.34-2.35-.16-2.52v-2.68l-.17-2.53-.34-2.37-.5-2.18-.7-2.02-.5-2.2-.33-2.35-.17-2.52v-2.7l.17-2.35.34-2.02.5-1.68.7-1.35.5-1.34.33-1.34.17-1.35v-1.33l.33-1.52.68-1.68 1.02-1.85 1.34-2.02 1.18-1.86 1-1.68.85-1.5.67-1.36 1-1.5 1.35-1.7 1.7-1.85 2-2.02 2.53-2.2 3.03-2.35 3.54-2.52 4.04-2.7 3.7-2.52 3.37-2.36 3.03-2.2 2.7-2 2.85-1.86 3.04-1.68 3.2-1.52 3.37-1.34 3.55-1.35 3.7-1.35 3.87-1.34 4.04-1.35 3.87-1.36 3.7-1.34 3.54-1.35 3.37-1.35 3.87-1.34 4.4-1.35 4.87-1.34 5.4-1.34 5.54-1 5.74-.7 5.9-.32h15.14M2980.45 1019.85l3.37 10.1 1 4.72.68 5.4.34 6.05v6.73l-1.18 6.23-2.36 5.72-3.53 5.22-4.72 4.7-4.2 3.9-3.7 3.02-3.2 2.2-2.7 1.33-2.53 1.35-2.35 1.35-2.2 1.34-2 1.36-3.04 1.52-4.04 1.68-5.06 1.85-6.06 2.03-4.9 1.5-3.7 1.02-2.52.5h-1.34l-1.18.18-1 .34-.85.5-.68.67-.68.5-.67.35-.67.15h-1.7" stroke="#e81313" stroke-width="8" stroke-linecap="round" stroke-linejoin="round" fill="none"/><path d="M2929.27 1065.64v16.84l-.17 5.4-.33 4.03-.5 2.7-.68 1.35-.52 2.35-.33 3.37-.17 4.38v13.47h5.05l3.37-.5 4.7-1.02 6.07-1.52 7.4-2.02 5.9-1.5 4.38-1.02 2.86-.5h1.36l1.17-.17 1-.34.86-.5 1.67-1.7M2926.58 1235.34h13.47l4.88.5 4.38 1 3.88 1.53 3.37 2.02 3.36 1.84 3.38 1.68 3.37 1.52 3.36 1.35 3.38 1.5 3.37 1.68 3.36 1.86 3.38 2.02 3.03 2.02 2.7 2.02 2.36 2.02 2.02 2.02 1.68 1.85 1.35 1.67 1.02 1.52.68 1.33 1 1.35 1.35 1.35 1.68 1.34 2.03 1.35 1.68 1.52 1.35 1.68 1 1.85.67 2.02.5 2 .34 2.03.18 2.02v2.02l.17 1.85.33 1.7.5 1.5.68 1.35.5 3.2.34 5.05.17 6.9v8.75l-.17 6.9-.33 5.06-.5 3.2-.68 1.34-.52 1.52-.33 1.67-.17 1.85v2.02l-.17 2.02-.33 2.02-.5 2.02-.68 2.02-.68 1.7-.67 1.33-.68 1-.67.7-.5.83-.34 1-.17 1.2v3.35h-1.7l-.66.34-.68.67-.67 1-.68 1.36-.68 1-.67.68-.67.34h-1.7v5.4h-1.67l-.68.33-.67.67-.67 1-.67 1.36-.5 1.17-.34 1-.18.86v1.7" stroke="#e81313" stroke-width="8" stroke-linecap="round" stroke-linejoin="round" fill="none"/><path d="M2961.6 1348.47l5.05 11.78 1.68 4.2 1.35 3.7 1 3.2.68 2.7.67 2.36.68 2.03.68 1.68.67 1.36.5 1.35.34 1.36.16 1.34v1.35l.17 1.35.34 1.34.5 1.35.68 1.34.5 1.17.34 1.02.16.85v.67l.16.67.34.7.5.66.68.67.5.68.34.68.17.67v1.7h6.73l2.36-.18 2.02-.34 1.68-.5 1.35-.68 1.17-.84 1-1 .85-1.18.68-1.34.67-1.7.67-2 .68-2.36.67-2.7.83-2.35 1-2.02 1.2-1.7 1.33-1.34 1.18-1.33 1-1.35.86-1.35.67-1.34.84-1.18 1.02-1 1.18-.85 1.35-.67 1-.85.68-1 .34-1.2v-3.35M3063.95 1493.92h30.3l10.44-.17 8.74-.34 7.07-.5 5.4-.67 5.72-1.17 6.07-1.7 6.38-2.18 6.74-2.7 6.4-3.02 6.05-3.37 5.73-3.7 5.4-4.05 5.37-4.38 5.4-4.7 5.38-5.06 5.38-5.38 5.22-5.05 5.05-4.7 4.9-4.4 4.7-4.03 4.54-4.2 4.38-4.4 4.2-4.53 4.05-4.7 3.7-4.55 3.37-4.38 3.03-4.2 2.7-4.05 2.7-4.7 2.68-5.4 2.7-6.06 2.7-6.73 2.18-5.9 1.68-5.04 1.2-4.22.66-3.37.84-5.2 1-7.08 1.2-8.92 1.34-10.78 1.18-9.1 1-7.4.85-5.72.67-4.04.5-7.4.34-10.78.17-14.14v-17.5l-.33-14.32-.68-11.1-1-7.92-1.35-4.7-1.36-5.9-1.35-7.08-1.36-8.25-1.34-9.42-1.18-8.42-1-7.4-.85-6.4-.68-5.4-.5-5.2-.35-5.06-.16-4.88v-4.73l-.35-4.2-.68-3.7-1-3.2-1.35-2.7-1.18-2.86-1-3.02-.85-3.2-.7-3.37-1-3.53-1.34-3.7-1.7-3.87-2-4.04-2.03-3.87-2.02-3.72-2-3.53-2.03-3.37-2.02-3.2-2.02-3.03-2.02-2.86-2-2.7-2.2-3.03-2.35-3.37-2.53-3.7-2.7-4.04-2.35-3.7-2.02-3.37-1.68-3.04-1.35-2.7-1.5-2.52-1.7-2.36-1.85-2.2-2.02-2-1.85-2.2-1.68-2.35-1.52-2.53-1.35-2.7-1.68-2.7-2.02-2.68-2.36-2.7-2.7-2.7-2.53-2.68-2.35-2.7-2.2-2.7-2-2.68-2.37-2.86-2.7-3.03-3.02-3.2-3.37-3.37-3.03-2.7-2.7-2-2.35-1.36-2.02-.67-1.5-.68-1.03-.68-.5-.67v-1.7h-3.37l-1.17-.15-1.03-.34-.84-.5-.67-.68-.67-.5-.7-.34-.66-.17h-.67l-.68-.17-.68-.34-.67-.5-1.7-1.68" stroke="#e81313" stroke-width="8" stroke-linecap="round" stroke-linejoin="round" fill="none"/><path d="M3144.76 1030.63l-1.7-11.8-.5-4.03-.33-3.36-.17-2.7v-2.02l-.33-2.2-.68-2.34-1-2.53-1.35-2.7-1-2.35-.7-2.02-.32-1.68v-1.35l-.17-1.18-.33-1-.5-.85-.68-.67-.5-.68-.35-.67-.17-.67v-.68l-.5-1-1-1.35-1.53-1.7-2.02-2-1.5-1.86-1.02-1.68-.5-1.52v-1.34l-.17-1.18-.33-1-.5-.85-.68-.68-.5-.68-.34-.67-.17-.68v-1.68h-2.7 1.7l1.85.33 3.03.67 4.2 1 5.4 1.36 6.56 1 7.75.68 8.9.34h10.1l8.6.17 7.06.33 5.56.5 4.04.68 4.38.5 4.7.34 5.06.17h13.47v5.4" stroke="#e81313" stroke-width="8" stroke-linecap="round" stroke-linejoin="round" fill="none"/><path d="M2416 1024l-2.5 17.5-.75 10.75-.5 14.5-.25 18.25v22l-.25 18.75-.5 15.5-.75 12.25-1 9-.75 9.25-.5 9.5-.25 9.75v10l-.5 12.5-1 15-1.5 17.5-2 20-1.5 22.25-1 24.5-.5 26.75v29l.5 25 1 21 1.5 17 2 13 1.5 11.5 1 10 .5 8.5v7l.5 8.5 1 10 1.5 11.5 2 13 2 11.5 2 10 2 8.5 2 7 2 7.5 2 8 2 8.5 2 9 1.75 8.75 1.5 8.5 1.25 8.25 1 8 1.25 8 1.5 8 1.75 8 2 8 2 8.25 2 8.5 2 8.75 2 9 2.25 9 2.5 9 2.75 9 3 9 4 11.5 5 14 6 16.5 7 19 5.75 15.75 4.5 12.5 3.25 9.25 2 6 1.75 6.25 1.5 6.5 1.25 6.75 1 7 1.75 7.75 2.5 8.5 3.25 9.25 4 10 3.25 9.5 2.5 9 1.75 8.5 1 8 1.25 7.5 1.5 7 1.75 6.5 2 6 2 6.5 2 7 2 7.5 2 8 2 7.5 2 7 2 6.5 2 6 2 5.75 2 5.5 2 5.25 2 5 1.75 4.75 1.5 4.5 1.25 4.25 1 4 .75 3.5.5 3 .25 2.5v2l.25 2 .5 2 .75 2 1 2 .75 2.25.5 2.5.25 2.75v3l.25 2.75.5 2.5.75 2.25 1 2 .75 2 .5 2 .25 2v2l.5 2.5 1 3 1.5 3.5 2 4 1.5 3.25 1 2.5.5 1.75v1l.25 1.25.5 1.5.75 1.75 1 2 .75 2 .5 2 .25 2v2l.25 1.75.5 1.5.75 1.25 1 1 .75 1 .5 1 .25 1v1l.75 2.25 1.5 3.5 2.25 4.75 3 6 2.25 5 1.5 4 .75 3v2l.5 2.25 1 2.5 1.5 2.75 2 3 1.75 2.75 1.5 2.5 1.25 2.25 1 2 1.25 3 1.5 4 1.75 5 2 6 2 5.5 2 5 2 4.5 2 4 1.75 4 1.5 4 1.25 4 1 4 1 3.75 1 3.5 1 3.25 1 3 1.25 2.75 1.5 2.5 1.75 2.25 2 2 1.5 2.25 1 2.5.5 2.75v3l.25 2.5.5 2 .75 1.5 1 1 .75 1.25.5 1.5.25 1.75v5h4v5l.5 2 1 2 1.5 2 2 2 1.5 1.75 1 1.5.5 1.25v1l.25 1 .5 1 .75 1 1 1 .75 1.25.5 1.5.25 1.75v5l-2.5-5-1-2.25-1-2.5-1-2.75-2.5-7.5" stroke="#54c45e" stroke-width="8" stroke-linecap="round" stroke-linejoin="round" fill="none"/><path d="M2604 2264l5 12.5 1.75 4 1.5 3 1.25 2 1 1 1 1.25 1 1.5 1 1.75 1 2 1.25 2 1.5 2 1.75 2 2 2 2 2.25 2 2.5 2 2.75 2 3 2.5 3.25 3 3.5 3.5 3.75 4 4 3 3.25 2 2.5 1 1.75v2.5l-2.5-5-.75-7.75-.5-13.5-.25-19.25V2228h-4M2384 1072l7.5-12.5 4.5-6 6-7 7.5-8 22.5-22.5 2.5 5 .75 8 .5 14 .25 20v26l-.25 19.75-.5 13.5-.75 7.25-1 1-.75 1.5-.5 2-.25 2.5v7.5" stroke="#54c45e" stroke-width="8" stroke-linecap="round" stroke-linejoin="round" fill="none"/><defs><path d="M190-63c-7 42-38 67-86 67-59 0-84-38-90-98-12-110 154-137 174-36l-49 2c-2-19-15-32-35-32-30 0-35 28-38 64-6 74 65 87 74 30" id="ay"/><path d="M114-157C55-157 80-60 75 0H25v-261h50l-1 109c12-26 28-41 61-42 86-1 58 113 63 194h-50c-7-57 23-157-34-157" id="az"/><path d="M185-48c-13 30-37 53-82 52C43 2 14-33 14-96s30-98 90-98c62 0 83 45 84 108H66c0 31 8 55 39 56 18 0 30-7 34-22zm-45-69c5-46-57-63-70-21-2 6-4 13-4 21h74" id="aA"/><path d="M147 0L96-86 75-71V0H25v-261h50v150l67-79h53l-66 74L201 0h-54" id="aB"/><path d="M24-248c93 1 206-16 204 79-1 75-69 88-152 82V0H24v-248zm52 121c47 0 100 7 100-41 0-47-54-39-100-39v80" id="aC"/><path d="M133-34C117-15 103 5 69 4 32 3 11-16 11-54c-1-60 55-63 116-61 1-26-3-47-28-47-18 1-26 9-28 27l-52-2c7-38 36-58 82-57s74 22 75 68l1 82c-1 14 12 18 25 15v27c-30 8-71 5-69-32zm-48 3c29 0 43-24 42-57-32 0-66-3-65 30 0 17 8 27 23 27" id="aD"/><path d="M137-138c1-29-70-34-71-4 15 46 118 7 119 86 1 83-164 76-172 9l43-7c4 19 20 25 44 25 33 8 57-30 24-41C81-84 22-81 20-136c-2-80 154-74 161-7" id="aE"/><path d="M67-93c0 74 22 123 53 168H70C40 30 18-18 18-93s22-123 52-168h50c-32 44-53 94-53 168" id="aF"/><path d="M135-150c-39-12-60 13-60 57V0H25l-1-190h47c2 13-1 29 3 40 6-28 27-53 61-41v41" id="aG"/><g id="a"><use transform="matrix(0.1111111111111111,0,0,0.1111111111111111,0,0)" xlink:href="#ay"/><use transform="matrix(0.1111111111111111,0,0,0.1111111111111111,22.22222222222222,0)" xlink:href="#az"/><use transform="matrix(0.1111111111111111,0,0,0.1111111111111111,46.55555555555556,0)" xlink:href="#aA"/><use transform="matrix(0.1111111111111111,0,0,0.1111111111111111,68.77777777777777,0)" xlink:href="#ay"/><use transform="matrix(0.1111111111111111,0,0,0.1111111111111111,91,0)" xlink:href="#aB"/><use transform="matrix(0.1111111111111111,0,0,0.1111111111111111,113.22222222222223,0)" xlink:href="#aC"/><use transform="matrix(0.1111111111111111,0,0,0.1111111111111111,139.88888888888889,0)" xlink:href="#aD"/><use transform="matrix(0.1111111111111111,0,0,0.1111111111111111,162.11111111111111,0)" xlink:href="#aE"/><use transform="matrix(0.1111111111111111,0,0,0.1111111111111111,184.33333333333334,0)" xlink:href="#aE"/><use transform="matrix(0.1111111111111111,0,0,0.1111111111111111,206.55555555555557,0)" xlink:href="#aF"/><use transform="matrix(0.1111111111111111,0,0,0.1111111111111111,219.7777777777778,0)" xlink:href="#ay"/><use transform="matrix(0.1111111111111111,0,0,0.1111111111111111,242.00000000000003,0)" xlink:href="#az"/><use transform="matrix(0.1111111111111111,0,0,0.1111111111111111,266.33333333333337,0)" xlink:href="#aD"/><use transform="matrix(0.1111111111111111,0,0,0.1111111111111111,288.5555555555556,0)" xlink:href="#aG"/></g><path d="M86-200l42-18 12 35-44 11 32 37-32 21-26-44-26 44-32-21 33-37-44-11 12-35 42 18-3-48h38" id="aH"/><path d="M135-194c53 0 70 44 70 98 0 56-19 98-73 100-31 1-45-17-59-34 3 33 2 69 2 105H25l-1-265h48c2 10 0 23 3 31 11-24 29-35 60-35zM114-30c33 0 39-31 40-66 0-38-9-64-40-64-56 0-55 130 0 130" id="aI"/><path d="M220-157c-53 9-28 100-34 157h-49v-107c1-27-5-49-29-50C55-147 81-57 75 0H25l-1-190h47c2 12-1 28 3 38 10-53 101-56 108 0 13-22 24-43 59-42 82 1 51 116 57 194h-49v-107c-1-25-5-48-29-50" id="aJ"/><path d="M-4 44V30h207v14H-4" id="aK"/><path d="M23 0v-37h61v-169l-59 37v-38l62-41h46v211h57V0H23" id="aL"/><path d="M102-93c0 74-22 123-52 168H0C30 29 54-18 53-93c0-74-22-123-53-168h50c30 45 52 94 52 168" id="aM"/><g id="b"><use transform="matrix(0.1111111111111111,0,0,0.1111111111111111,0,0)" xlink:href="#aH"/><use transform="matrix(0.1111111111111111,0,0,0.1111111111111111,15.555555555555555,0)" xlink:href="#aI"/><use transform="matrix(0.1111111111111111,0,0,0.1111111111111111,39.888888888888886,0)" xlink:href="#aD"/><use transform="matrix(0.1111111111111111,0,0,0.1111111111111111,62.11111111111111,0)" xlink:href="#aG"/><use transform="matrix(0.1111111111111111,0,0,0.1111111111111111,77.66666666666666,0)" xlink:href="#aD"/><use transform="matrix(0.1111111111111111,0,0,0.1111111111111111,99.88888888888889,0)" xlink:href="#aJ"/><use transform="matrix(0.1111111111111111,0,0,0.1111111111111111,135.44444444444446,0)" xlink:href="#aK"/><use transform="matrix(0.1111111111111111,0,0,0.1111111111111111,157.66666666666669,0)" xlink:href="#aL"/><use transform="matrix(0.1111111111111111,0,0,0.1111111111111111,179.8888888888889,0)" xlink:href="#aM"/></g><path d="M121-226c-27-7-43 5-38 36h38v33H83V0H34v-157H6v-33h28c-9-59 32-81 87-68v32" id="aN"/><path d="M85 4C-2 5 27-109 22-190h50c7 57-23 150 33 157 60-5 35-97 40-157h50l1 190h-47c-2-12 1-28-3-38-12 25-28 42-61 42" id="aO"/><path d="M135-194c87-1 58 113 63 194h-50c-7-57 23-157-34-157-59 0-34 97-39 157H25l-1-190h47c2 12-1 28 3 38 12-26 28-41 61-42" id="aP"/><path d="M115-3C79 11 28 4 28-45v-112H4v-33h27l15-45h31v45h36v33H77v99c-1 23 16 31 38 25v30" id="aQ"/><path d="M25-224v-37h50v37H25zM25 0v-190h50V0H25" id="aR"/><path d="M110-194c64 0 96 36 96 99 0 64-35 99-97 99-61 0-95-36-95-99 0-62 34-99 96-99zm-1 164c35 0 45-28 45-65 0-40-10-65-43-65-34 0-45 26-45 65 0 36 10 65 43 65" id="aS"/><g id="c"><use transform="matrix(0.1111111111111111,0,0,0.1111111111111111,0,0)" xlink:href="#aN"/><use transform="matrix(0.1111111111111111,0,0,0.1111111111111111,13.222222222222221,0)" xlink:href="#aO"/><use transform="matrix(0.1111111111111111,0,0,0.1111111111111111,37.55555555555556,0)" xlink:href="#aP"/><use transform="matrix(0.1111111111111111,0,0,0.1111111111111111,61.888888888888886,0)" xlink:href="#ay"/><use transform="matrix(0.1111111111111111,0,0,0.1111111111111111,84.11111111111111,0)" xlink:href="#aQ"/><use transform="matrix(0.1111111111111111,0,0,0.1111111111111111,97.33333333333334,0)" xlink:href="#aR"/><use transform="matrix(0.1111111111111111,0,0,0.1111111111111111,108.44444444444446,0)" xlink:href="#aS"/><use transform="matrix(0.1111111111111111,0,0,0.1111111111111111,132.7777777777778,0)" xlink:href="#aP"/></g><path fill="#6aab73" d="M96-169c-40 0-48 33-48 73s9 75 48 75c24 0 41-14 43-38l32 2c-6 37-31 61-74 61-59 0-76-41-82-99-10-93 101-131 147-64 4 7 5 14 7 22l-32 3c-4-21-16-35-41-35" id="aT"/><path fill="#6aab73" d="M106-169C34-169 62-67 57 0H25v-261h32l-1 103c12-21 28-36 61-36 89 0 53 116 60 194h-32v-121c2-32-8-49-39-48" id="aU"/><path fill="#6aab73" d="M141-36C126-15 110 5 73 4 37 3 15-17 15-53c-1-64 63-63 125-63 3-35-9-54-41-54-24 1-41 7-42 31l-33-3c5-37 33-52 76-52 45 0 72 20 72 64v82c-1 20 7 32 28 27v20c-31 9-61-2-59-35zM48-53c0 20 12 33 32 33 41-3 63-29 60-74-43 2-92-5-92 41" id="aV"/><path fill="#6aab73" d="M114-163C36-179 61-72 57 0H25l-1-190h30c1 12-1 29 2 39 6-27 23-49 58-41v29" id="aW"/><g id="d"><use transform="matrix(0.08641975308641976,0,0,0.08641975308641976,0,0)" xlink:href="#aT"/><use transform="matrix(0.08641975308641976,0,0,0.08641975308641976,15.555555555555557,0)" xlink:href="#aU"/><use transform="matrix(0.08641975308641976,0,0,0.08641975308641976,32.839506172839506,0)" xlink:href="#aV"/><use transform="matrix(0.08641975308641976,0,0,0.08641975308641976,50.123456790123456,0)" xlink:href="#aW"/></g><path fill="#6aab73" d="M137 0h-34L2-248h35l83 218 83-218h36" id="aX"/><path fill="#6aab73" d="M27 0v-27h64v-190l-56 39v-29l58-41h29v221h61V0H27" id="aY"/><path fill="#6aab73" d="M68-36c1 33-1 63-14 82H32c9-13 17-26 17-46H33v-36h35zM33-154v-36h35v36H33" id="aZ"/><g id="e"><use transform="matrix(0.08641975308641976,0,0,0.08641975308641976,0,0)" xlink:href="#aT"/><use transform="matrix(0.08641975308641976,0,0,0.08641975308641976,15.555555555555557,0)" xlink:href="#aX"/><use transform="matrix(0.08641975308641976,0,0,0.08641975308641976,33.96296296296297,0)" xlink:href="#aV"/><use transform="matrix(0.08641975308641976,0,0,0.08641975308641976,51.246913580246925,0)" xlink:href="#aW"/><use transform="matrix(0.08641975308641976,0,0,0.08641975308641976,61.53086419753087,0)" xlink:href="#aY"/><use transform="matrix(0.08641975308641976,0,0,0.08641975308641976,78.81481481481482,0)" xlink:href="#aZ"/></g><path d="M137 0h-34L2-248h35l83 218 83-218h36" id="ba"/><path d="M141-36C126-15 110 5 73 4 37 3 15-17 15-53c-1-64 63-63 125-63 3-35-9-54-41-54-24 1-41 7-42 31l-33-3c5-37 33-52 76-52 45 0 72 20 72 64v82c-1 20 7 32 28 27v20c-31 9-61-2-59-35zM48-53c0 20 12 33 32 33 41-3 63-29 60-74-43 2-92-5-92 41" id="bb"/><path d="M114-163C36-179 61-72 57 0H25l-1-190h30c1 12-1 29 2 39 6-27 23-49 58-41v29" id="bc"/><path d="M24-231v-30h32v30H24zM24 0v-190h32V0H24" id="bd"/><path d="M115-194c53 0 69 39 70 98 0 66-23 100-70 100C84 3 66-7 56-30L54 0H23l1-261h32v101c10-23 28-34 59-34zm-8 174c40 0 45-34 45-75 0-40-5-75-45-74-42 0-51 32-51 76 0 43 10 73 51 73" id="be"/><path d="M24 0v-261h32V0H24" id="bf"/><path d="M100-194c63 0 86 42 84 106H49c0 40 14 67 53 68 26 1 43-12 49-29l28 8c-11 28-37 45-77 45C44 4 14-33 15-96c1-61 26-98 85-98zm52 81c6-60-76-77-97-28-3 7-6 17-6 28h103" id="bg"/><g id="f"><use transform="matrix(0.08641975308641976,0,0,0.08641975308641976,0,0)" xlink:href="#ba"/><use transform="matrix(0.08641975308641976,0,0,0.08641975308641976,18.407407407407412,0)" xlink:href="#bb"/><use transform="matrix(0.08641975308641976,0,0,0.08641975308641976,35.69135802469137,0)" xlink:href="#bc"/><use transform="matrix(0.08641975308641976,0,0,0.08641975308641976,45.97530864197531,0)" xlink:href="#bd"/><use transform="matrix(0.08641975308641976,0,0,0.08641975308641976,52.80246913580248,0)" xlink:href="#bb"/><use transform="matrix(0.08641975308641976,0,0,0.08641975308641976,70.08641975308643,0)" xlink:href="#be"/><use transform="matrix(0.08641975308641976,0,0,0.08641975308641976,87.37037037037038,0)" xlink:href="#bf"/><use transform="matrix(0.08641975308641976,0,0,0.08641975308641976,94.19753086419755,0)" xlink:href="#bg"/></g><path d="M101-234c-31-9-42 10-38 44h38v23H63V0H32v-167H5v-23h27c-7-52 17-82 69-68v24" id="bh"/><path d="M100-194c62-1 85 37 85 99 1 63-27 99-86 99S16-35 15-95c0-66 28-99 85-99zM99-20c44 1 53-31 53-75 0-43-8-75-51-75s-53 32-53 75 10 74 51 75" id="bi"/><g id="g"><use transform="matrix(0.08641975308641976,0,0,0.08641975308641976,0,0)" xlink:href="#bh"/><use transform="matrix(0.08641975308641976,0,0,0.08641975308641976,8.641975308641976,0)" xlink:href="#bi"/><use transform="matrix(0.08641975308641976,0,0,0.08641975308641976,25.925925925925927,0)" xlink:href="#bc"/></g><path d="M135-143c-3-34-86-38-87 0 15 53 115 12 119 90S17 21 10-45l28-5c4 36 97 45 98 0-10-56-113-15-118-90-4-57 82-63 122-42 12 7 21 19 24 35" id="bj"/><path d="M59-47c-2 24 18 29 38 22v24C64 9 27 4 27-40v-127H5v-23h24l9-43h21v43h35v23H59v120" id="bk"/><path d="M117-194c89-4 53 116 60 194h-32v-121c0-31-8-49-39-48C34-167 62-67 57 0H25l-1-190h30c1 10-1 24 2 32 11-22 29-35 61-36" id="bl"/><path d="M177-190C167-65 218 103 67 71c-23-6-38-20-44-43l32-5c15 47 100 32 89-28v-30C133-14 115 1 83 1 29 1 15-40 15-95c0-56 16-97 71-98 29-1 48 16 59 35 1-10 0-23 2-32h30zM94-22c36 0 50-32 50-73 0-42-14-75-50-75-39 0-46 34-46 75s6 73 46 73" id="bm"/><g id="h"><use transform="matrix(0.08641975308641976,0,0,0.08641975308641976,0,0)" xlink:href="#bj"/><use transform="matrix(0.08641975308641976,0,0,0.08641975308641976,15.555555555555557,0)" xlink:href="#bk"/><use transform="matrix(0.08641975308641976,0,0,0.08641975308641976,24.19753086419753,0)" xlink:href="#bi"/><use transform="matrix(0.08641975308641976,0,0,0.08641975308641976,41.48148148148148,0)" xlink:href="#bc"/><use transform="matrix(0.08641975308641976,0,0,0.08641975308641976,51.76543209876543,0)" xlink:href="#bd"/><use transform="matrix(0.08641975308641976,0,0,0.08641975308641976,58.592592592592595,0)" xlink:href="#bl"/><use transform="matrix(0.08641975308641976,0,0,0.08641975308641976,75.87654320987654,0)" xlink:href="#bm"/></g><g id="i"><use transform="matrix(0.08641975308641976,0,0,0.08641975308641976,0,0)" xlink:href="#bi"/><use transform="matrix(0.08641975308641976,0,0,0.08641975308641976,17.283950617283953,0)" xlink:href="#bl"/><use transform="matrix(0.08641975308641976,0,0,0.08641975308641976,34.567901234567906,0)" xlink:href="#bg"/></g><path d="M96-169c-40 0-48 33-48 73s9 75 48 75c24 0 41-14 43-38l32 2c-6 37-31 61-74 61-59 0-76-41-82-99-10-93 101-131 147-64 4 7 5 14 7 22l-32 3c-4-21-16-35-41-35" id="bn"/><path d="M106-169C34-169 62-67 57 0H25v-261h32l-1 103c12-21 28-36 61-36 89 0 53 116 60 194h-32v-121c2-32-8-49-39-48" id="bo"/><g id="j"><use transform="matrix(0.08641975308641976,0,0,0.08641975308641976,0,0)" xlink:href="#bn"/><use transform="matrix(0.08641975308641976,0,0,0.08641975308641976,15.555555555555557,0)" xlink:href="#bo"/><use transform="matrix(0.08641975308641976,0,0,0.08641975308641976,32.839506172839506,0)" xlink:href="#bb"/><use transform="matrix(0.08641975308641976,0,0,0.08641975308641976,50.123456790123456,0)" xlink:href="#bc"/></g><path d="M210-169c-67 3-38 105-44 169h-31v-121c0-29-5-50-35-48C34-165 62-65 56 0H25l-1-190h30c1 10-1 24 2 32 10-44 99-50 107 0 11-21 27-35 58-36 85-2 47 119 55 194h-31v-121c0-29-5-49-35-48" id="bp"/><g id="k"><use transform="matrix(0.08641975308641976,0,0,0.08641975308641976,0,0)" xlink:href="#bh"/><use transform="matrix(0.08641975308641976,0,0,0.08641975308641976,8.641975308641976,0)" xlink:href="#bc"/><use transform="matrix(0.08641975308641976,0,0,0.08641975308641976,18.925925925925927,0)" xlink:href="#bi"/><use transform="matrix(0.08641975308641976,0,0,0.08641975308641976,36.20987654320988,0)" xlink:href="#bp"/></g><path d="M26 75v-336h71v23H56V52h41v23H26" id="bq"/><path d="M110-160c48 1 74 30 74 79 0 53-28 85-80 85-65 0-83-55-86-122-5-90 50-162 133-122 14 7 22 21 27 39l-31 6c-5-40-67-38-82-6-9 19-15 44-15 74 11-20 30-34 60-33zm-7 138c34 0 49-23 49-58s-16-56-50-56c-29 0-50 16-49 49 1 36 15 65 50 65" id="br"/><path d="M155-56V0h-30v-56H8v-25l114-167h33v167h35v25h-35zm-30-156c-27 46-58 90-88 131h88v-131" id="bs"/><path d="M3 75V52h41v-290H3v-23h71V75H3" id="bt"/><g id="l"><use transform="matrix(0.08641975308641976,0,0,0.08641975308641976,0,0)" xlink:href="#bn"/><use transform="matrix(0.08641975308641976,0,0,0.08641975308641976,15.555555555555557,0)" xlink:href="#bo"/><use transform="matrix(0.08641975308641976,0,0,0.08641975308641976,32.839506172839506,0)" xlink:href="#bb"/><use transform="matrix(0.08641975308641976,0,0,0.08641975308641976,50.123456790123456,0)" xlink:href="#bc"/><use transform="matrix(0.08641975308641976,0,0,0.08641975308641976,60.407407407407405,0)" xlink:href="#bq"/><use transform="matrix(0.08641975308641976,0,0,0.08641975308641976,69.04938271604938,0)" xlink:href="#br"/><use transform="matrix(0.08641975308641976,0,0,0.08641975308641976,86.33333333333333,0)" xlink:href="#bs"/><use transform="matrix(0.08641975308641976,0,0,0.08641975308641976,103.61728395061728,0)" xlink:href="#bt"/></g><path d="M80-196l47-18 7 23-49 13 32 44-20 13-27-46-27 45-21-12 33-44-49-13 8-23 47 19-2-53h23" id="bu"/><path d="M115-194c55 1 70 41 70 98S169 2 115 4C84 4 66-9 55-30l1 105H24l-1-265h31l2 30c10-21 28-34 59-34zm-8 174c40 0 45-34 45-75s-6-73-45-74c-42 0-51 32-51 76 0 43 10 73 51 73" id="bv"/><path d="M-5 72V49h209v23H-5" id="bw"/><path d="M27 0v-27h64v-190l-56 39v-29l58-41h29v221h61V0H27" id="bx"/><g id="m"><use transform="matrix(0.08641975308641976,0,0,0.08641975308641976,0,0)" xlink:href="#bu"/><use transform="matrix(0.08641975308641976,0,0,0.08641975308641976,12.098765432098766,0)" xlink:href="#bv"/><use transform="matrix(0.08641975308641976,0,0,0.08641975308641976,29.38271604938272,0)" xlink:href="#bb"/><use transform="matrix(0.08641975308641976,0,0,0.08641975308641976,46.66666666666667,0)" xlink:href="#bc"/><use transform="matrix(0.08641975308641976,0,0,0.08641975308641976,56.95061728395062,0)" xlink:href="#bb"/><use transform="matrix(0.08641975308641976,0,0,0.08641975308641976,74.23456790123457,0)" xlink:href="#bp"/><use transform="matrix(0.08641975308641976,0,0,0.08641975308641976,100.07407407407409,0)" xlink:href="#bw"/><use transform="matrix(0.08641975308641976,0,0,0.08641975308641976,117.35802469135801,0)" xlink:href="#bx"/></g><path d="M18-150v-26h174v26H18zm0 90v-26h174v26H18" id="by"/><g id="n"><use transform="matrix(0.08641975308641976,0,0,0.08641975308641976,0,0)" xlink:href="#by"/><use transform="matrix(0.08641975308641976,0,0,0.08641975308641976,18.14814814814815,0)" xlink:href="#by"/></g><path d="M47-170H22l-4-78h33" id="bz"/><g id="o"><use transform="matrix(0.08641975308641976,0,0,0.08641975308641976,0,0)" xlink:href="#bz"/><use transform="matrix(0.08641975308641976,0,0,0.08641975308641976,5.8765432098765435,0)" xlink:href="#bj"/><use transform="matrix(0.08641975308641976,0,0,0.08641975308641976,21.4320987654321,0)" xlink:href="#bz"/></g><path d="M212-179c-10-28-35-45-73-45-59 0-87 40-87 99 0 60 29 101 89 101 43 0 62-24 78-52l27 14C228-24 195 4 139 4 59 4 22-46 18-125c-6-104 99-153 187-111 19 9 31 26 39 46" id="bA"/><g id="p"><use transform="matrix(0.08641975308641976,0,0,0.08641975308641976,0,0)" xlink:href="#bA"/><use transform="matrix(0.08641975308641976,0,0,0.08641975308641976,22.38271604938272,0)" xlink:href="#bi"/><use transform="matrix(0.08641975308641976,0,0,0.08641975308641976,39.66666666666667,0)" xlink:href="#bp"/><use transform="matrix(0.08641975308641976,0,0,0.08641975308641976,65.50617283950618,0)" xlink:href="#bv"/><use transform="matrix(0.08641975308641976,0,0,0.08641975308641976,82.79012345679013,0)" xlink:href="#bb"/><use transform="matrix(0.08641975308641976,0,0,0.08641975308641976,100.07407407407409,0)" xlink:href="#bc"/><use transform="matrix(0.08641975308641976,0,0,0.08641975308641976,110.35802469135801,0)" xlink:href="#bd"/><use transform="matrix(0.08641975308641976,0,0,0.08641975308641976,117.18518518518519,0)" xlink:href="#bl"/><use transform="matrix(0.08641975308641976,0,0,0.08641975308641976,134.46913580246914,0)" xlink:href="#bm"/></g><g id="q"><use transform="matrix(0.08641975308641976,0,0,0.08641975308641976,0,0)" xlink:href="#bk"/><use transform="matrix(0.08641975308641976,0,0,0.08641975308641976,8.641975308641976,0)" xlink:href="#bo"/><use transform="matrix(0.08641975308641976,0,0,0.08641975308641976,25.925925925925927,0)" xlink:href="#bg"/></g><g id="r"><use transform="matrix(0.08641975308641976,0,0,0.08641975308641976,0,0)" xlink:href="#bh"/><use transform="matrix(0.08641975308641976,0,0,0.08641975308641976,8.641975308641976,0)" xlink:href="#bd"/><use transform="matrix(0.08641975308641976,0,0,0.08641975308641976,15.469135802469138,0)" xlink:href="#bc"/><use transform="matrix(0.08641975308641976,0,0,0.08641975308641976,25.75308641975309,0)" xlink:href="#bj"/><use transform="matrix(0.08641975308641976,0,0,0.08641975308641976,41.308641975308646,0)" xlink:href="#bk"/></g><g id="s"><use transform="matrix(0.08641975308641976,0,0,0.08641975308641976,0,0)" xlink:href="#bf"/><use transform="matrix(0.08641975308641976,0,0,0.08641975308641976,6.8271604938271615,0)" xlink:href="#bg"/><use transform="matrix(0.08641975308641976,0,0,0.08641975308641976,24.111111111111114,0)" xlink:href="#bk"/><use transform="matrix(0.08641975308641976,0,0,0.08641975308641976,32.75308641975309,0)" xlink:href="#bk"/><use transform="matrix(0.08641975308641976,0,0,0.08641975308641976,41.39506172839506,0)" xlink:href="#bg"/><use transform="matrix(0.08641975308641976,0,0,0.08641975308641976,58.679012345679006,0)" xlink:href="#bc"/></g><g id="t"><use transform="matrix(0.08641975308641976,0,0,0.08641975308641976,0,0)" xlink:href="#bd"/><use transform="matrix(0.08641975308641976,0,0,0.08641975308641976,6.8271604938271615,0)" xlink:href="#bl"/></g><use transform="matrix(0.08641975308641976,0,0,0.08641975308641976,0,0)" xlink:href="#bb" id="u"/><path d="M206 0h-36l-40-164L89 0H53L-1-190h32L70-26l43-164h34l41 164 42-164h31" id="bB"/><path d="M85-194c31 0 48 13 60 33l-1-100h32l1 261h-30c-2-10 0-23-3-31C134-8 116 4 85 4 32 4 16-35 15-94c0-66 23-100 70-100zm9 24c-40 0-46 34-46 75 0 40 6 74 45 74 42 0 51-32 51-76 0-42-9-74-50-73" id="bC"/><g id="v"><use transform="matrix(0.08641975308641976,0,0,0.08641975308641976,0,0)" xlink:href="#bv"/><use transform="matrix(0.08641975308641976,0,0,0.08641975308641976,17.283950617283953,0)" xlink:href="#bb"/><use transform="matrix(0.08641975308641976,0,0,0.08641975308641976,34.567901234567906,0)" xlink:href="#bj"/><use transform="matrix(0.08641975308641976,0,0,0.08641975308641976,50.12345679012346,0)" xlink:href="#bj"/><use transform="matrix(0.08641975308641976,0,0,0.08641975308641976,65.67901234567901,0)" xlink:href="#bB"/><use transform="matrix(0.08641975308641976,0,0,0.08641975308641976,88.06172839506173,0)" xlink:href="#bi"/><use transform="matrix(0.08641975308641976,0,0,0.08641975308641976,105.34567901234568,0)" xlink:href="#bc"/><use transform="matrix(0.08641975308641976,0,0,0.08641975308641976,115.62962962962965,0)" xlink:href="#bC"/></g><g id="w"><use transform="matrix(0.08641975308641976,0,0,0.08641975308641976,0,0)" xlink:href="#aT"/><use transform="matrix(0.08641975308641976,0,0,0.08641975308641976,15.555555555555557,0)" xlink:href="#aX"/><use transform="matrix(0.08641975308641976,0,0,0.08641975308641976,33.96296296296297,0)" xlink:href="#aV"/><use transform="matrix(0.08641975308641976,0,0,0.08641975308641976,51.246913580246925,0)" xlink:href="#aW"/><use transform="matrix(0.08641975308641976,0,0,0.08641975308641976,61.53086419753087,0)" xlink:href="#aY"/></g><path fill="#6aab73" d="M18-150v-26h174v26H18zm0 90v-26h174v26H18" id="bD"/><use transform="matrix(0.08641975308641976,0,0,0.08641975308641976,0,0)" xlink:href="#bD" id="x"/><path fill="#6aab73" d="M115-194c55 1 70 41 70 98S169 2 115 4C84 4 66-9 55-30l1 105H24l-1-265h31l2 30c10-21 28-34 59-34zm-8 174c40 0 45-34 45-75s-6-73-45-74c-42 0-51 32-51 76 0 43 10 73 51 73" id="bE"/><path fill="#6aab73" d="M210-169c-67 3-38 105-44 169h-31v-121c0-29-5-50-35-48C34-165 62-65 56 0H25l-1-190h30c1 10-1 24 2 32 10-44 99-50 107 0 11-21 27-35 58-36 85-2 47 119 55 194h-31v-121c0-29-5-49-35-48" id="bF"/><path fill="#6aab73" d="M-5 72V49h209v23H-5" id="bG"/><path fill="#6aab73" d="M26 75v-336h71v23H56V52h41v23H26" id="bH"/><path fill="#6aab73" d="M3 75V52h41v-290H3v-23h71V75H3" id="bI"/><g id="y"><use transform="matrix(0.08641975308641976,0,0,0.08641975308641976,0,0)" xlink:href="#bE"/><use transform="matrix(0.08641975308641976,0,0,0.08641975308641976,17.283950617283953,0)" xlink:href="#aV"/><use transform="matrix(0.08641975308641976,0,0,0.08641975308641976,34.567901234567906,0)" xlink:href="#aW"/><use transform="matrix(0.08641975308641976,0,0,0.08641975308641976,44.851851851851855,0)" xlink:href="#aV"/><use transform="matrix(0.08641975308641976,0,0,0.08641975308641976,62.13580246913581,0)" xlink:href="#bF"/><use transform="matrix(0.08641975308641976,0,0,0.08641975308641976,87.97530864197532,0)" xlink:href="#bG"/><use transform="matrix(0.08641975308641976,0,0,0.08641975308641976,105.25925925925927,0)" xlink:href="#aY"/><use transform="matrix(0.08641975308641976,0,0,0.08641975308641976,122.54320987654322,0)" xlink:href="#bH"/><use transform="matrix(0.08641975308641976,0,0,0.08641975308641976,131.1851851851852,0)" xlink:href="#aY"/><use transform="matrix(0.08641975308641976,0,0,0.08641975308641976,148.46913580246914,0)" xlink:href="#bI"/><use transform="matrix(0.08641975308641976,0,0,0.08641975308641976,157.11111111111111,0)" xlink:href="#aZ"/></g><path fill="#333" d="M115-3C79 11 28 4 28-45v-112H4v-33h27l15-45h31v45h36v33H77v99c-1 23 16 31 38 25v30" id="bJ"/><path fill="#333" d="M135-150c-39-12-60 13-60 57V0H25l-1-190h47c2 13-1 29 3 40 6-28 27-53 61-41v41" id="bK"/><path fill="#333" d="M85 4C-2 5 27-109 22-190h50c7 57-23 150 33 157 60-5 35-97 40-157h50l1 190h-47c-2-12 1-28-3-38-12 25-28 42-61 42" id="bL"/><path fill="#333" d="M185-48c-13 30-37 53-82 52C43 2 14-33 14-96s30-98 90-98c62 0 83 45 84 108H66c0 31 8 55 39 56 18 0 30-7 34-22zm-45-69c5-46-57-63-70-21-2 6-4 13-4 21h74" id="bM"/><g id="z"><use transform="matrix(0.08641975308641976,0,0,0.08641975308641976,0,0)" xlink:href="#bJ"/><use transform="matrix(0.08641975308641976,0,0,0.08641975308641976,10.283950617283951,0)" xlink:href="#bK"/><use transform="matrix(0.08641975308641976,0,0,0.08641975308641976,22.382716049382715,0)" xlink:href="#bL"/><use transform="matrix(0.08641975308641976,0,0,0.08641975308641976,41.308641975308646,0)" xlink:href="#bM"/></g><g id="A"><use transform="matrix(0.08641975308641976,0,0,0.08641975308641976,0,0)" xlink:href="#bd"/><use transform="matrix(0.08641975308641976,0,0,0.08641975308641976,6.8271604938271615,0)" xlink:href="#bh"/></g><g id="B"><use transform="matrix(0.08641975308641976,0,0,0.08641975308641976,0,0)" xlink:href="#bd"/><use transform="matrix(0.08641975308641976,0,0,0.08641975308641976,6.8271604938271615,0)" xlink:href="#bk"/></g><g id="C"><use transform="matrix(0.08641975308641976,0,0,0.08641975308641976,0,0)" xlink:href="#bd"/><use transform="matrix(0.08641975308641976,0,0,0.08641975308641976,6.8271604938271615,0)" xlink:href="#bj"/></g><path d="M84 4C-5 8 30-112 23-190h32v120c0 31 7 50 39 49 72-2 45-101 50-169h31l1 190h-30c-1-10 1-25-2-33-11 22-28 36-60 37" id="bN"/><path d="M68-38c1 34 0 65-14 84H32c9-13 17-26 17-46H33v-38h35" id="bO"/><g id="D"><use transform="matrix(0.08641975308641976,0,0,0.08641975308641976,0,0)" xlink:href="#bj"/><use transform="matrix(0.08641975308641976,0,0,0.08641975308641976,15.555555555555557,0)" xlink:href="#bN"/><use transform="matrix(0.08641975308641976,0,0,0.08641975308641976,32.839506172839506,0)" xlink:href="#bn"/><use transform="matrix(0.08641975308641976,0,0,0.08641975308641976,48.39506172839506,0)" xlink:href="#bn"/><use transform="matrix(0.08641975308641976,0,0,0.08641975308641976,63.95061728395062,0)" xlink:href="#bg"/><use transform="matrix(0.08641975308641976,0,0,0.08641975308641976,81.23456790123457,0)" xlink:href="#bj"/><use transform="matrix(0.08641975308641976,0,0,0.08641975308641976,96.79012345679013,0)" xlink:href="#bj"/><use transform="matrix(0.08641975308641976,0,0,0.08641975308641976,112.34567901234568,0)" xlink:href="#bh"/><use transform="matrix(0.08641975308641976,0,0,0.08641975308641976,120.98765432098767,0)" xlink:href="#bN"/><use transform="matrix(0.08641975308641976,0,0,0.08641975308641976,138.27160493827162,0)" xlink:href="#bf"/><use transform="matrix(0.08641975308641976,0,0,0.08641975308641976,145.0987654320988,0)" xlink:href="#bO"/></g><g id="E"><use transform="matrix(0.08641975308641976,0,0,0.08641975308641976,0,0)" xlink:href="#bB"/><use transform="matrix(0.08641975308641976,0,0,0.08641975308641976,22.38271604938272,0)" xlink:href="#bg"/></g><g id="F"><use transform="matrix(0.08641975308641976,0,0,0.08641975308641976,0,0)" xlink:href="#bB"/><use transform="matrix(0.08641975308641976,0,0,0.08641975308641976,22.38271604938272,0)" xlink:href="#bc"/><use transform="matrix(0.08641975308641976,0,0,0.08641975308641976,32.66666666666667,0)" xlink:href="#bd"/><use transform="matrix(0.08641975308641976,0,0,0.08641975308641976,39.49382716049384,0)" xlink:href="#bk"/><use transform="matrix(0.08641975308641976,0,0,0.08641975308641976,48.13580246913581,0)" xlink:href="#bg"/></g><g id="G"><use transform="matrix(0.08641975308641976,0,0,0.08641975308641976,0,0)" xlink:href="#bk"/><use transform="matrix(0.08641975308641976,0,0,0.08641975308641976,8.641975308641976,0)" xlink:href="#bo"/><use transform="matrix(0.08641975308641976,0,0,0.08641975308641976,25.925925925925927,0)" xlink:href="#bg"/></g><path d="M141 0L90-78 38 0H4l68-98-65-92h35l48 74 47-74h35l-64 92 68 98h-35" id="bP"/><g id="H"><use transform="matrix(0.08641975308641976,0,0,0.08641975308641976,0,0)" xlink:href="#bl"/><use transform="matrix(0.08641975308641976,0,0,0.08641975308641976,17.283950617283953,0)" xlink:href="#bg"/><use transform="matrix(0.08641975308641976,0,0,0.08641975308641976,34.567901234567906,0)" xlink:href="#bP"/><use transform="matrix(0.08641975308641976,0,0,0.08641975308641976,50.12345679012346,0)" xlink:href="#bk"/></g><g id="I"><use transform="matrix(0.08641975308641976,0,0,0.08641975308641976,0,0)" xlink:href="#bn"/><use transform="matrix(0.08641975308641976,0,0,0.08641975308641976,15.555555555555557,0)" xlink:href="#bo"/><use transform="matrix(0.08641975308641976,0,0,0.08641975308641976,32.839506172839506,0)" xlink:href="#bb"/><use transform="matrix(0.08641975308641976,0,0,0.08641975308641976,50.123456790123456,0)" xlink:href="#bc"/><use transform="matrix(0.08641975308641976,0,0,0.08641975308641976,60.407407407407405,0)" xlink:href="#bb"/><use transform="matrix(0.08641975308641976,0,0,0.08641975308641976,77.69135802469135,0)" xlink:href="#bn"/><use transform="matrix(0.08641975308641976,0,0,0.08641975308641976,93.2469135802469,0)" xlink:href="#bk"/><use transform="matrix(0.08641975308641976,0,0,0.08641975308641976,101.88888888888889,0)" xlink:href="#bg"/><use transform="matrix(0.08641975308641976,0,0,0.08641975308641976,119.17283950617283,0)" xlink:href="#bc"/></g><g id="J"><use transform="matrix(0.08641975308641976,0,0,0.08641975308641976,0,0)" xlink:href="#bk"/><use transform="matrix(0.08641975308641976,0,0,0.08641975308641976,8.641975308641976,0)" xlink:href="#bi"/></g><path d="M108 0H70L1-190h34L89-25l56-165h34" id="bQ"/><g id="K"><use transform="matrix(0.08641975308641976,0,0,0.08641975308641976,0,0)" xlink:href="#bQ"/><use transform="matrix(0.08641975308641976,0,0,0.08641975308641976,15.555555555555557,0)" xlink:href="#bb"/><use transform="matrix(0.08641975308641976,0,0,0.08641975308641976,32.839506172839506,0)" xlink:href="#bc"/><use transform="matrix(0.08641975308641976,0,0,0.08641975308641976,43.123456790123456,0)" xlink:href="#bd"/><use transform="matrix(0.08641975308641976,0,0,0.08641975308641976,49.95061728395062,0)" xlink:href="#bb"/><use transform="matrix(0.08641975308641976,0,0,0.08641975308641976,67.23456790123457,0)" xlink:href="#be"/><use transform="matrix(0.08641975308641976,0,0,0.08641975308641976,84.51851851851852,0)" xlink:href="#bf"/><use transform="matrix(0.08641975308641976,0,0,0.08641975308641976,91.34567901234568,0)" xlink:href="#bg"/></g><g id="L"><use transform="matrix(0.08641975308641976,0,0,0.08641975308641976,0,0)" xlink:href="#bh"/><use transform="matrix(0.08641975308641976,0,0,0.08641975308641976,8.641975308641976,0)" xlink:href="#bi"/><use transform="matrix(0.08641975308641976,0,0,0.08641975308641976,25.925925925925927,0)" xlink:href="#bc"/></g><g id="M"><use transform="matrix(0.08641975308641976,0,0,0.08641975308641976,0,0)" xlink:href="#bh"/><use transform="matrix(0.08641975308641976,0,0,0.08641975308641976,8.641975308641976,0)" xlink:href="#bN"/><use transform="matrix(0.08641975308641976,0,0,0.08641975308641976,25.925925925925927,0)" xlink:href="#bc"/><use transform="matrix(0.08641975308641976,0,0,0.08641975308641976,36.20987654320988,0)" xlink:href="#bk"/><use transform="matrix(0.08641975308641976,0,0,0.08641975308641976,44.851851851851855,0)" xlink:href="#bo"/><use transform="matrix(0.08641975308641976,0,0,0.08641975308641976,62.13580246913581,0)" xlink:href="#bg"/><use transform="matrix(0.08641975308641976,0,0,0.08641975308641976,79.41975308641976,0)" xlink:href="#bc"/></g><g id="N"><use transform="matrix(0.08641975308641976,0,0,0.08641975308641976,0,0)" xlink:href="#bn"/><use transform="matrix(0.08641975308641976,0,0,0.08641975308641976,15.555555555555557,0)" xlink:href="#bi"/><use transform="matrix(0.08641975308641976,0,0,0.08641975308641976,32.839506172839506,0)" xlink:href="#bp"/><use transform="matrix(0.08641975308641976,0,0,0.08641975308641976,58.679012345679006,0)" xlink:href="#bv"/><use transform="matrix(0.08641975308641976,0,0,0.08641975308641976,75.96296296296296,0)" xlink:href="#bb"/><use transform="matrix(0.08641975308641976,0,0,0.08641975308641976,93.2469135802469,0)" xlink:href="#bc"/><use transform="matrix(0.08641975308641976,0,0,0.08641975308641976,103.53086419753086,0)" xlink:href="#bd"/><use transform="matrix(0.08641975308641976,0,0,0.08641975308641976,110.35802469135801,0)" xlink:href="#bj"/><use transform="matrix(0.08641975308641976,0,0,0.08641975308641976,125.91358024691357,0)" xlink:href="#bi"/><use transform="matrix(0.08641975308641976,0,0,0.08641975308641976,143.19753086419755,0)" xlink:href="#bl"/><use transform="matrix(0.08641975308641976,0,0,0.08641975308641976,160.4814814814815,0)" xlink:href="#bj"/></g><path d="M143 0L79-87 56-68V0H24v-261h32v163l83-92h37l-77 82L181 0h-38" id="bR"/><g id="O"><use transform="matrix(0.08641975308641976,0,0,0.08641975308641976,0,0)" xlink:href="#bA"/><use transform="matrix(0.08641975308641976,0,0,0.08641975308641976,22.38271604938272,0)" xlink:href="#bo"/><use transform="matrix(0.08641975308641976,0,0,0.08641975308641976,39.66666666666667,0)" xlink:href="#bg"/><use transform="matrix(0.08641975308641976,0,0,0.08641975308641976,56.95061728395062,0)" xlink:href="#bn"/><use transform="matrix(0.08641975308641976,0,0,0.08641975308641976,72.50617283950618,0)" xlink:href="#bR"/><use transform="matrix(0.08641975308641976,0,0,0.08641975308641976,88.06172839506173,0)" xlink:href="#bd"/><use transform="matrix(0.08641975308641976,0,0,0.08641975308641976,94.8888888888889,0)" xlink:href="#bl"/><use transform="matrix(0.08641975308641976,0,0,0.08641975308641976,112.17283950617285,0)" xlink:href="#bm"/></g><g id="P"><use transform="matrix(0.08641975308641976,0,0,0.08641975308641976,0,0)" xlink:href="#bh"/><use transform="matrix(0.08641975308641976,0,0,0.08641975308641976,8.641975308641976,0)" xlink:href="#bi"/><use transform="matrix(0.08641975308641976,0,0,0.08641975308641976,25.925925925925927,0)" xlink:href="#bf"/><use transform="matrix(0.08641975308641976,0,0,0.08641975308641976,32.75308641975309,0)" xlink:href="#bf"/><use transform="matrix(0.08641975308641976,0,0,0.08641975308641976,39.580246913580254,0)" xlink:href="#bi"/><use transform="matrix(0.08641975308641976,0,0,0.08641975308641976,56.8641975308642,0)" xlink:href="#bB"/><use transform="matrix(0.08641975308641976,0,0,0.08641975308641976,79.24691358024693,0)" xlink:href="#bd"/><use transform="matrix(0.08641975308641976,0,0,0.08641975308641976,86.07407407407409,0)" xlink:href="#bl"/><use transform="matrix(0.08641975308641976,0,0,0.08641975308641976,103.35802469135804,0)" xlink:href="#bm"/></g><g id="Q"><use transform="matrix(0.08641975308641976,0,0,0.08641975308641976,0,0)" xlink:href="#bn"/><use transform="matrix(0.08641975308641976,0,0,0.08641975308641976,15.555555555555557,0)" xlink:href="#bo"/><use transform="matrix(0.08641975308641976,0,0,0.08641975308641976,32.839506172839506,0)" xlink:href="#bb"/><use transform="matrix(0.08641975308641976,0,0,0.08641975308641976,50.123456790123456,0)" xlink:href="#bc"/><use transform="matrix(0.08641975308641976,0,0,0.08641975308641976,60.407407407407405,0)" xlink:href="#bb"/><use transform="matrix(0.08641975308641976,0,0,0.08641975308641976,77.69135802469135,0)" xlink:href="#bn"/><use transform="matrix(0.08641975308641976,0,0,0.08641975308641976,93.2469135802469,0)" xlink:href="#bk"/><use transform="matrix(0.08641975308641976,0,0,0.08641975308641976,101.88888888888889,0)" xlink:href="#bg"/><use transform="matrix(0.08641975308641976,0,0,0.08641975308641976,119.17283950617283,0)" xlink:href="#bc"/><use transform="matrix(0.08641975308641976,0,0,0.08641975308641976,129.45679012345678,0)" xlink:href="#bj"/></g><g id="R"><use transform="matrix(0.05925925925925927,0,0,0.05925925925925927,0,0)" xlink:href="#bd"/><use transform="matrix(0.05925925925925927,0,0,0.05925925925925927,4.681481481481482,0)" xlink:href="#bh"/></g><path d="M87 75C49 33 22-17 22-94c0-76 28-126 65-167h31c-38 41-64 92-64 168S80 34 118 75H87" id="bS"/><g id="S"><use transform="matrix(0.05925925925925927,0,0,0.05925925925925927,0,0)" xlink:href="#bS"/><use transform="matrix(0.05925925925925927,0,0,0.05925925925925927,7.051851851851853,0)" xlink:href="#bS"/><use transform="matrix(0.05925925925925927,0,0,0.05925925925925927,14.103703703703706,0)" xlink:href="#bS"/><use transform="matrix(0.05925925925925927,0,0,0.05925925925925927,21.15555555555556,0)" xlink:href="#bS"/><use transform="matrix(0.05925925925925927,0,0,0.05925925925925927,28.207407407407413,0)" xlink:href="#bn"/><use transform="matrix(0.05925925925925927,0,0,0.05925925925925927,38.87407407407408,0)" xlink:href="#ba"/><use transform="matrix(0.05925925925925927,0,0,0.05925925925925927,51.49629629629631,0)" xlink:href="#bb"/><use transform="matrix(0.05925925925925927,0,0,0.05925925925925927,63.348148148148155,0)" xlink:href="#bc"/><use transform="matrix(0.05925925925925927,0,0,0.05925925925925927,70.40000000000002,0)" xlink:href="#bx"/></g><g id="T"><use transform="matrix(0.05925925925925927,0,0,0.05925925925925927,0,0)" xlink:href="#by"/><use transform="matrix(0.05925925925925927,0,0,0.05925925925925927,12.444444444444446,0)" xlink:href="#by"/></g><path d="M33-261c38 41 65 92 65 168S71 34 33 75H2C39 34 66-17 66-93S39-220 2-261h31" id="bT"/><g id="U"><use transform="matrix(0.05925925925925927,0,0,0.05925925925925927,0,0)" xlink:href="#bz"/><use transform="matrix(0.05925925925925927,0,0,0.05925925925925927,4.02962962962963,0)" xlink:href="#bN"/><use transform="matrix(0.05925925925925927,0,0,0.05925925925925927,15.881481481481483,0)" xlink:href="#bz"/><use transform="matrix(0.05925925925925927,0,0,0.05925925925925927,19.91111111111111,0)" xlink:href="#bT"/></g><path d="M234-2c-28 10-62 0-77-18C117 19 8 12 13-65c3-43 29-61 60-76-25-40-17-114 47-108 35 3 59 15 59 50 0 44-40 53-71 69 14 26 32 50 51 72 14-21 24-43 30-72l26 8c-9 33-21 57-38 82 13 13 33 22 57 15v23zM97-151c25-10 52-18 56-48-1-18-13-29-33-29-42 0-39 50-23 77zM42-66c-3 51 71 58 98 28-20-24-41-51-56-80-23 10-40 24-42 52" id="bU"/><g id="V"><use transform="matrix(0.05925925925925927,0,0,0.05925925925925927,0,0)" xlink:href="#bU"/><use transform="matrix(0.05925925925925927,0,0,0.05925925925925927,14.222222222222225,0)" xlink:href="#bU"/></g><g id="W"><use transform="matrix(0.05925925925925927,0,0,0.05925925925925927,0,0)" xlink:href="#bS"/><use transform="matrix(0.05925925925925927,0,0,0.05925925925925927,7.051851851851853,0)" xlink:href="#bn"/><use transform="matrix(0.05925925925925927,0,0,0.05925925925925927,17.718518518518522,0)" xlink:href="#ba"/><use transform="matrix(0.05925925925925927,0,0,0.05925925925925927,30.340740740740745,0)" xlink:href="#bb"/><use transform="matrix(0.05925925925925927,0,0,0.05925925925925927,42.1925925925926,0)" xlink:href="#bc"/><use transform="matrix(0.05925925925925927,0,0,0.05925925925925927,49.24444444444445,0)" xlink:href="#bx"/></g><use transform="matrix(0.05925925925925927,0,0,0.05925925925925927,0,0)" xlink:href="#by" id="X"/><path d="M101-251c82-7 93 87 43 132L82-64C71-53 59-42 53-27h129V0H18c2-99 128-94 128-182 0-28-16-43-45-43s-46 15-49 41l-32-3c6-41 34-60 81-64" id="bV"/><g id="Y"><use transform="matrix(0.05925925925925927,0,0,0.05925925925925927,0,0)" xlink:href="#bv"/><use transform="matrix(0.05925925925925927,0,0,0.05925925925925927,11.851851851851853,0)" xlink:href="#bb"/><use transform="matrix(0.05925925925925927,0,0,0.05925925925925927,23.703703703703706,0)" xlink:href="#bc"/><use transform="matrix(0.05925925925925927,0,0,0.05925925925925927,30.75555555555556,0)" xlink:href="#bb"/><use transform="matrix(0.05925925925925927,0,0,0.05925925925925927,42.607407407407415,0)" xlink:href="#bp"/><use transform="matrix(0.05925925925925927,0,0,0.05925925925925927,60.32592592592594,0)" xlink:href="#bw"/><use transform="matrix(0.05925925925925927,0,0,0.05925925925925927,72.17777777777779,0)" xlink:href="#bx"/><use transform="matrix(0.05925925925925927,0,0,0.05925925925925927,84.02962962962964,0)" xlink:href="#bq"/><use transform="matrix(0.05925925925925927,0,0,0.05925925925925927,89.95555555555556,0)" xlink:href="#bV"/><use transform="matrix(0.05925925925925927,0,0,0.05925925925925927,101.80740740740741,0)" xlink:href="#bt"/><use transform="matrix(0.05925925925925927,0,0,0.05925925925925927,107.73333333333333,0)" xlink:href="#bO"/></g><g id="Z"><use transform="matrix(0.05925925925925927,0,0,0.05925925925925927,0,0)" xlink:href="#bn"/><use transform="matrix(0.05925925925925927,0,0,0.05925925925925927,10.666666666666668,0)" xlink:href="#ba"/><use transform="matrix(0.05925925925925927,0,0,0.05925925925925927,23.28888888888889,0)" xlink:href="#bb"/><use transform="matrix(0.05925925925925927,0,0,0.05925925925925927,35.140740740740746,0)" xlink:href="#bc"/><use transform="matrix(0.05925925925925927,0,0,0.05925925925925927,42.1925925925926,0)" xlink:href="#bx"/></g><g id="aa"><use transform="matrix(0.05925925925925927,0,0,0.05925925925925927,0,0)" xlink:href="#bz"/><use transform="matrix(0.05925925925925927,0,0,0.05925925925925927,4.02962962962963,0)" xlink:href="#bC"/><use transform="matrix(0.05925925925925927,0,0,0.05925925925925927,15.881481481481483,0)" xlink:href="#bz"/><use transform="matrix(0.05925925925925927,0,0,0.05925925925925927,19.91111111111111,0)" xlink:href="#bT"/><use transform="matrix(0.05925925925925927,0,0,0.05925925925925927,26.962962962962965,0)" xlink:href="#bT"/></g><g id="ab"><use transform="matrix(0.05925925925925927,0,0,0.05925925925925927,0,0)" xlink:href="#bU"/><use transform="matrix(0.05925925925925927,0,0,0.05925925925925927,14.222222222222225,0)" xlink:href="#bU"/></g><use transform="matrix(0.05925925925925927,0,0,0.05925925925925927,0,0)" xlink:href="#by" id="ad"/><path d="M126-127c33 6 58 20 58 59 0 88-139 92-164 29-3-8-5-16-6-25l32-3c6 27 21 44 54 44 32 0 52-15 52-46 0-38-36-46-79-43v-28c39 1 72-4 72-42 0-27-17-43-46-43-28 0-47 15-49 41l-32-3c6-42 35-63 81-64 48-1 79 21 79 65 0 36-21 52-52 59" id="bW"/><g id="ae"><use transform="matrix(0.05925925925925927,0,0,0.05925925925925927,0,0)" xlink:href="#bv"/><use transform="matrix(0.05925925925925927,0,0,0.05925925925925927,11.851851851851853,0)" xlink:href="#bb"/><use transform="matrix(0.05925925925925927,0,0,0.05925925925925927,23.703703703703706,0)" xlink:href="#bc"/><use transform="matrix(0.05925925925925927,0,0,0.05925925925925927,30.75555555555556,0)" xlink:href="#bb"/><use transform="matrix(0.05925925925925927,0,0,0.05925925925925927,42.607407407407415,0)" xlink:href="#bp"/><use transform="matrix(0.05925925925925927,0,0,0.05925925925925927,60.32592592592594,0)" xlink:href="#bw"/><use transform="matrix(0.05925925925925927,0,0,0.05925925925925927,72.17777777777779,0)" xlink:href="#bx"/><use transform="matrix(0.05925925925925927,0,0,0.05925925925925927,84.02962962962964,0)" xlink:href="#bq"/><use transform="matrix(0.05925925925925927,0,0,0.05925925925925927,89.95555555555556,0)" xlink:href="#bW"/><use transform="matrix(0.05925925925925927,0,0,0.05925925925925927,101.80740740740741,0)" xlink:href="#bt"/><use transform="matrix(0.05925925925925927,0,0,0.05925925925925927,107.73333333333333,0)" xlink:href="#bO"/></g><g id="af"><use transform="matrix(0.05925925925925927,0,0,0.05925925925925927,0,0)" xlink:href="#bz"/><use transform="matrix(0.05925925925925927,0,0,0.05925925925925927,4.02962962962963,0)" xlink:href="#bi"/><use transform="matrix(0.05925925925925927,0,0,0.05925925925925927,15.881481481481483,0)" xlink:href="#bz"/><use transform="matrix(0.05925925925925927,0,0,0.05925925925925927,19.91111111111111,0)" xlink:href="#bT"/><use transform="matrix(0.05925925925925927,0,0,0.05925925925925927,26.962962962962965,0)" xlink:href="#bT"/></g><g id="ah"><use transform="matrix(0.05925925925925927,0,0,0.05925925925925927,0,0)" xlink:href="#bS"/><use transform="matrix(0.05925925925925927,0,0,0.05925925925925927,7.051851851851853,0)" xlink:href="#bS"/><use transform="matrix(0.05925925925925927,0,0,0.05925925925925927,14.103703703703706,0)" xlink:href="#bS"/><use transform="matrix(0.05925925925925927,0,0,0.05925925925925927,21.15555555555556,0)" xlink:href="#bn"/><use transform="matrix(0.05925925925925927,0,0,0.05925925925925927,31.822222222222226,0)" xlink:href="#ba"/><use transform="matrix(0.05925925925925927,0,0,0.05925925925925927,44.44444444444445,0)" xlink:href="#bb"/><use transform="matrix(0.05925925925925927,0,0,0.05925925925925927,56.296296296296305,0)" xlink:href="#bc"/><use transform="matrix(0.05925925925925927,0,0,0.05925925925925927,63.348148148148155,0)" xlink:href="#bx"/></g><g id="ai"><use transform="matrix(0.05925925925925927,0,0,0.05925925925925927,0,0)" xlink:href="#bv"/><use transform="matrix(0.05925925925925927,0,0,0.05925925925925927,11.851851851851853,0)" xlink:href="#bb"/><use transform="matrix(0.05925925925925927,0,0,0.05925925925925927,23.703703703703706,0)" xlink:href="#bc"/><use transform="matrix(0.05925925925925927,0,0,0.05925925925925927,30.75555555555556,0)" xlink:href="#bb"/><use transform="matrix(0.05925925925925927,0,0,0.05925925925925927,42.607407407407415,0)" xlink:href="#bp"/><use transform="matrix(0.05925925925925927,0,0,0.05925925925925927,60.32592592592594,0)" xlink:href="#bw"/><use transform="matrix(0.05925925925925927,0,0,0.05925925925925927,72.17777777777779,0)" xlink:href="#bx"/><use transform="matrix(0.05925925925925927,0,0,0.05925925925925927,84.02962962962964,0)" xlink:href="#bq"/><use transform="matrix(0.05925925925925927,0,0,0.05925925925925927,89.95555555555556,0)" xlink:href="#bs"/><use transform="matrix(0.05925925925925927,0,0,0.05925925925925927,101.80740740740741,0)" xlink:href="#bt"/><use transform="matrix(0.05925925925925927,0,0,0.05925925925925927,107.73333333333333,0)" xlink:href="#bO"/></g><path d="M101-251c68 0 85 55 85 127S166 4 100 4C33 4 14-52 14-124c0-73 17-127 87-127zm-1 229c47 0 54-49 54-102s-4-102-53-102c-51 0-55 48-55 102 0 53 5 102 54 102" id="bX"/><g id="aj"><use transform="matrix(0.05925925925925927,0,0,0.05925925925925927,0,0)" xlink:href="#bz"/><use transform="matrix(0.05925925925925927,0,0,0.05925925925925927,4.02962962962963,0)" xlink:href="#bX"/><use transform="matrix(0.05925925925925927,0,0,0.05925925925925927,15.881481481481483,0)" xlink:href="#bz"/></g><path d="M54-142c48-35 137-8 131 61C196 18 31 33 14-55l32-4c7 23 22 37 52 37 35-1 51-22 54-58 4-55-73-65-99-34H22l8-134h141v27H59" id="bY"/><g id="ak"><use transform="matrix(0.05925925925925927,0,0,0.05925925925925927,0,0)" xlink:href="#bv"/><use transform="matrix(0.05925925925925927,0,0,0.05925925925925927,11.851851851851853,0)" xlink:href="#bb"/><use transform="matrix(0.05925925925925927,0,0,0.05925925925925927,23.703703703703706,0)" xlink:href="#bc"/><use transform="matrix(0.05925925925925927,0,0,0.05925925925925927,30.75555555555556,0)" xlink:href="#bb"/><use transform="matrix(0.05925925925925927,0,0,0.05925925925925927,42.607407407407415,0)" xlink:href="#bp"/><use transform="matrix(0.05925925925925927,0,0,0.05925925925925927,60.32592592592594,0)" xlink:href="#bw"/><use transform="matrix(0.05925925925925927,0,0,0.05925925925925927,72.17777777777779,0)" xlink:href="#bx"/><use transform="matrix(0.05925925925925927,0,0,0.05925925925925927,84.02962962962964,0)" xlink:href="#bq"/><use transform="matrix(0.05925925925925927,0,0,0.05925925925925927,89.95555555555556,0)" xlink:href="#bY"/><use transform="matrix(0.05925925925925927,0,0,0.05925925925925927,101.80740740740741,0)" xlink:href="#bt"/><use transform="matrix(0.05925925925925927,0,0,0.05925925925925927,107.73333333333333,0)" xlink:href="#bO"/></g><g id="al"><use transform="matrix(0.05925925925925927,0,0,0.05925925925925927,0,0)" xlink:href="#bn"/><use transform="matrix(0.05925925925925927,0,0,0.05925925925925927,10.666666666666668,0)" xlink:href="#ba"/><use transform="matrix(0.05925925925925927,0,0,0.05925925925925927,23.28888888888889,0)" xlink:href="#bb"/><use transform="matrix(0.05925925925925927,0,0,0.05925925925925927,35.140740740740746,0)" xlink:href="#bc"/><use transform="matrix(0.05925925925925927,0,0,0.05925925925925927,42.1925925925926,0)" xlink:href="#bx"/></g><g id="am"><use transform="matrix(0.05925925925925927,0,0,0.05925925925925927,0,0)" xlink:href="#bz"/><use transform="matrix(0.05925925925925927,0,0,0.05925925925925927,4.02962962962963,0)" xlink:href="#bP"/><use transform="matrix(0.05925925925925927,0,0,0.05925925925925927,14.696296296296298,0)" xlink:href="#bz"/><use transform="matrix(0.05925925925925927,0,0,0.05925925925925927,18.725925925925928,0)" xlink:href="#bT"/><use transform="matrix(0.05925925925925927,0,0,0.05925925925925927,25.777777777777782,0)" xlink:href="#bT"/></g><g id="an"><use transform="matrix(0.05925925925925927,0,0,0.05925925925925927,0,0)" xlink:href="#bS"/><use transform="matrix(0.05925925925925927,0,0,0.05925925925925927,7.051851851851853,0)" xlink:href="#bS"/><use transform="matrix(0.05925925925925927,0,0,0.05925925925925927,14.103703703703706,0)" xlink:href="#bn"/><use transform="matrix(0.05925925925925927,0,0,0.05925925925925927,24.770370370370372,0)" xlink:href="#ba"/><use transform="matrix(0.05925925925925927,0,0,0.05925925925925927,37.39259259259259,0)" xlink:href="#bb"/><use transform="matrix(0.05925925925925927,0,0,0.05925925925925927,49.24444444444445,0)" xlink:href="#bc"/><use transform="matrix(0.05925925925925927,0,0,0.05925925925925927,56.2962962962963,0)" xlink:href="#bx"/></g><g id="ao"><use transform="matrix(0.05925925925925927,0,0,0.05925925925925927,0,0)" xlink:href="#bv"/><use transform="matrix(0.05925925925925927,0,0,0.05925925925925927,11.851851851851853,0)" xlink:href="#bb"/><use transform="matrix(0.05925925925925927,0,0,0.05925925925925927,23.703703703703706,0)" xlink:href="#bc"/><use transform="matrix(0.05925925925925927,0,0,0.05925925925925927,30.75555555555556,0)" xlink:href="#bb"/><use transform="matrix(0.05925925925925927,0,0,0.05925925925925927,42.607407407407415,0)" xlink:href="#bp"/><use transform="matrix(0.05925925925925927,0,0,0.05925925925925927,60.32592592592594,0)" xlink:href="#bw"/><use transform="matrix(0.05925925925925927,0,0,0.05925925925925927,72.17777777777779,0)" xlink:href="#bx"/><use transform="matrix(0.05925925925925927,0,0,0.05925925925925927,84.02962962962964,0)" xlink:href="#bq"/><use transform="matrix(0.05925925925925927,0,0,0.05925925925925927,89.95555555555556,0)" xlink:href="#br"/><use transform="matrix(0.05925925925925927,0,0,0.05925925925925927,101.80740740740741,0)" xlink:href="#bt"/><use transform="matrix(0.05925925925925927,0,0,0.05925925925925927,107.73333333333333,0)" xlink:href="#bO"/></g><g id="ap"><use transform="matrix(0.05925925925925927,0,0,0.05925925925925927,0,0)" xlink:href="#bz"/><use transform="matrix(0.05925925925925927,0,0,0.05925925925925927,4.02962962962963,0)" xlink:href="#bx"/><use transform="matrix(0.05925925925925927,0,0,0.05925925925925927,15.881481481481483,0)" xlink:href="#bz"/></g><g id="aq"><use transform="matrix(0.05925925925925927,0,0,0.05925925925925927,0,0)" xlink:href="#bS"/><use transform="matrix(0.05925925925925927,0,0,0.05925925925925927,7.051851851851853,0)" xlink:href="#bn"/><use transform="matrix(0.05925925925925927,0,0,0.05925925925925927,17.718518518518522,0)" xlink:href="#ba"/><use transform="matrix(0.05925925925925927,0,0,0.05925925925925927,30.340740740740745,0)" xlink:href="#bb"/><use transform="matrix(0.05925925925925927,0,0,0.05925925925925927,42.1925925925926,0)" xlink:href="#bc"/><use transform="matrix(0.05925925925925927,0,0,0.05925925925925927,49.24444444444445,0)" xlink:href="#bx"/></g><path d="M64 0c3-98 48-159 88-221H18v-27h164v26C143-157 98-101 97 0H64" id="bZ"/><g id="ar"><use transform="matrix(0.05925925925925927,0,0,0.05925925925925927,0,0)" xlink:href="#bv"/><use transform="matrix(0.05925925925925927,0,0,0.05925925925925927,11.851851851851853,0)" xlink:href="#bb"/><use transform="matrix(0.05925925925925927,0,0,0.05925925925925927,23.703703703703706,0)" xlink:href="#bc"/><use transform="matrix(0.05925925925925927,0,0,0.05925925925925927,30.75555555555556,0)" xlink:href="#bb"/><use transform="matrix(0.05925925925925927,0,0,0.05925925925925927,42.607407407407415,0)" xlink:href="#bp"/><use transform="matrix(0.05925925925925927,0,0,0.05925925925925927,60.32592592592594,0)" xlink:href="#bw"/><use transform="matrix(0.05925925925925927,0,0,0.05925925925925927,72.17777777777779,0)" xlink:href="#bx"/><use transform="matrix(0.05925925925925927,0,0,0.05925925925925927,84.02962962962964,0)" xlink:href="#bq"/><use transform="matrix(0.05925925925925927,0,0,0.05925925925925927,89.95555555555556,0)" xlink:href="#bZ"/><use transform="matrix(0.05925925925925927,0,0,0.05925925925925927,101.80740740740741,0)" xlink:href="#bt"/><use transform="matrix(0.05925925925925927,0,0,0.05925925925925927,107.73333333333333,0)" xlink:href="#bO"/></g><path d="M134-131c28 9 52 24 51 62-1 50-34 73-85 73S17-19 16-69c0-36 21-54 49-61-75-25-45-126 34-121 46 3 78 18 79 63 0 33-17 51-44 57zm-34-11c31 1 46-15 46-44 0-28-17-43-47-42-29 0-46 13-45 42 1 28 16 44 46 44zm1 122c35 0 51-18 51-52 0-30-18-46-53-46-33 0-51 17-51 47 0 34 19 51 53 51" id="ca"/><g id="as"><use transform="matrix(0.05925925925925927,0,0,0.05925925925925927,0,0)" xlink:href="#bz"/><use transform="matrix(0.05925925925925927,0,0,0.05925925925925927,4.02962962962963,0)" xlink:href="#ca"/><use transform="matrix(0.05925925925925927,0,0,0.05925925925925927,15.881481481481483,0)" xlink:href="#bz"/><use transform="matrix(0.05925925925925927,0,0,0.05925925925925927,19.91111111111111,0)" xlink:href="#bT"/><use transform="matrix(0.05925925925925927,0,0,0.05925925925925927,26.962962962962965,0)" xlink:href="#bT"/><use transform="matrix(0.05925925925925927,0,0,0.05925925925925927,34.01481481481482,0)" xlink:href="#bT"/><use transform="matrix(0.05925925925925927,0,0,0.05925925925925927,41.06666666666667,0)" xlink:href="#bT"/><use transform="matrix(0.05925925925925927,0,0,0.05925925925925927,48.11851851851852,0)" xlink:href="#bT"/><use transform="matrix(0.05925925925925927,0,0,0.05925925925925927,55.17037037037037,0)" xlink:href="#bT"/></g><path fill="#6aab73" d="M47-170H22l-4-78h33" id="cb"/><path fill="#6aab73" d="M72 4L0-261h28L100 4H72" id="cc"/><path fill="#6aab73" d="M101-251c68 0 85 55 85 127S166 4 100 4C33 4 14-52 14-124c0-73 17-127 87-127zm-1 229c47 0 54-49 54-102s-4-102-53-102c-51 0-55 48-55 102 0 53 5 102 54 102" id="cd"/><g id="at"><use transform="matrix(0.08641975308641976,0,0,0.08641975308641976,0,0)" xlink:href="#cb"/><use transform="matrix(0.08641975308641976,0,0,0.08641975308641976,5.8765432098765435,0)" xlink:href="#cc"/><use transform="matrix(0.08641975308641976,0,0,0.08641975308641976,14.51851851851852,0)" xlink:href="#cd"/><use transform="matrix(0.08641975308641976,0,0,0.08641975308641976,31.802469135802472,0)" xlink:href="#cb"/><use transform="matrix(0.08641975308641976,0,0,0.08641975308641976,37.67901234567901,0)" xlink:href="#aZ"/></g><path fill="#333" d="M121-226c-27-7-43 5-38 36h38v33H83V0H34v-157H6v-33h28c-9-59 32-81 87-68v32" id="ce"/><path fill="#333" d="M133-34C117-15 103 5 69 4 32 3 11-16 11-54c-1-60 55-63 116-61 1-26-3-47-28-47-18 1-26 9-28 27l-52-2c7-38 36-58 82-57s74 22 75 68l1 82c-1 14 12 18 25 15v27c-30 8-71 5-69-32zm-48 3c29 0 43-24 42-57-32 0-66-3-65 30 0 17 8 27 23 27" id="cf"/><path fill="#333" d="M25 0v-261h50V0H25" id="cg"/><path fill="#333" d="M137-138c1-29-70-34-71-4 15 46 118 7 119 86 1 83-164 76-172 9l43-7c4 19 20 25 44 25 33 8 57-30 24-41C81-84 22-81 20-136c-2-80 154-74 161-7" id="ch"/><g id="au"><use transform="matrix(0.08641975308641976,0,0,0.08641975308641976,0,0)" xlink:href="#ce"/><use transform="matrix(0.08641975308641976,0,0,0.08641975308641976,10.283950617283951,0)" xlink:href="#cf"/><use transform="matrix(0.08641975308641976,0,0,0.08641975308641976,27.567901234567906,0)" xlink:href="#cg"/><use transform="matrix(0.08641975308641976,0,0,0.08641975308641976,36.20987654320988,0)" xlink:href="#ch"/><use transform="matrix(0.08641975308641976,0,0,0.08641975308641976,53.49382716049383,0)" xlink:href="#bM"/></g><path fill="#fff" d="M114-163C36-179 61-72 57 0H25l-1-190h30c1 12-1 29 2 39 6-27 23-49 58-41v29" id="ci"/><path fill="#fff" d="M100-194c63 0 86 42 84 106H49c0 40 14 67 53 68 26 1 43-12 49-29l28 8c-11 28-37 45-77 45C44 4 14-33 15-96c1-61 26-98 85-98zm52 81c6-60-76-77-97-28-3 7-6 17-6 28h103" id="cj"/><path fill="#fff" d="M59-47c-2 24 18 29 38 22v24C64 9 27 4 27-40v-127H5v-23h24l9-43h21v43h35v23H59v120" id="ck"/><path fill="#fff" d="M84 4C-5 8 30-112 23-190h32v120c0 31 7 50 39 49 72-2 45-101 50-169h31l1 190h-30c-1-10 1-25-2-33-11 22-28 36-60 37" id="cl"/><path fill="#fff" d="M117-194c89-4 53 116 60 194h-32v-121c0-31-8-49-39-48C34-167 62-67 57 0H25l-1-190h30c1 10-1 24 2 32 11-22 29-35 61-36" id="cm"/><g id="av"><use transform="matrix(0.1111111111111111,0,0,0.1111111111111111,0,0)" xlink:href="#ci"/><use transform="matrix(0.1111111111111111,0,0,0.1111111111111111,13.222222222222221,0)" xlink:href="#cj"/><use transform="matrix(0.1111111111111111,0,0,0.1111111111111111,35.44444444444444,0)" xlink:href="#ck"/><use transform="matrix(0.1111111111111111,0,0,0.1111111111111111,46.55555555555556,0)" xlink:href="#cl"/><use transform="matrix(0.1111111111111111,0,0,0.1111111111111111,68.77777777777777,0)" xlink:href="#ci"/><use transform="matrix(0.1111111111111111,0,0,0.1111111111111111,82,0)" xlink:href="#cm"/></g><path fill="#fff" d="M96-169c-40 0-48 33-48 73s9 75 48 75c24 0 41-14 43-38l32 2c-6 37-31 61-74 61-59 0-76-41-82-99-10-93 101-131 147-64 4 7 5 14 7 22l-32 3c-4-21-16-35-41-35" id="cn"/><path fill="#fff" d="M137 0h-34L2-248h35l83 218 83-218h36" id="co"/><path fill="#fff" d="M141-36C126-15 110 5 73 4 37 3 15-17 15-53c-1-64 63-63 125-63 3-35-9-54-41-54-24 1-41 7-42 31l-33-3c5-37 33-52 76-52 45 0 72 20 72 64v82c-1 20 7 32 28 27v20c-31 9-61-2-59-35zM48-53c0 20 12 33 32 33 41-3 63-29 60-74-43 2-92-5-92 41" id="cp"/><path fill="#fff" d="M27 0v-27h64v-190l-56 39v-29l58-41h29v221h61V0H27" id="cq"/><path fill="#fff" d="M68-36c1 33-1 63-14 82H32c9-13 17-26 17-46H33v-36h35zM33-154v-36h35v36H33" id="cr"/><g id="aw"><use transform="matrix(0.1111111111111111,0,0,0.1111111111111111,0,0)" xlink:href="#cn"/><use transform="matrix(0.1111111111111111,0,0,0.1111111111111111,20,0)" xlink:href="#co"/><use transform="matrix(0.1111111111111111,0,0,0.1111111111111111,43.666666666666664,0)" xlink:href="#cp"/><use transform="matrix(0.1111111111111111,0,0,0.1111111111111111,65.88888888888889,0)" xlink:href="#ci"/><use transform="matrix(0.1111111111111111,0,0,0.1111111111111111,79.11111111111111,0)" xlink:href="#cq"/><use transform="matrix(0.1111111111111111,0,0,0.1111111111111111,101.33333333333334,0)" xlink:href="#cr"/></g><path fill="#6aab73" d="M141 0L90-78 38 0H4l68-98-65-92h35l48 74 47-74h35l-64 92 68 98h-35" id="cs"/><g id="ax"><use transform="matrix(0.08641975308641976,0,0,0.08641975308641976,0,0)" xlink:href="#cb"/><use transform="matrix(0.08641975308641976,0,0,0.08641975308641976,5.8765432098765435,0)" xlink:href="#cc"/><use transform="matrix(0.08641975308641976,0,0,0.08641975308641976,14.51851851851852,0)" xlink:href="#cs"/><use transform="matrix(0.08641975308641976,0,0,0.08641975308641976,30.074074074074076,0)" xlink:href="#cd"/><use transform="matrix(0.08641975308641976,0,0,0.08641975308641976,47.35802469135803,0)" xlink:href="#aY"/><use transform="matrix(0.08641975308641976,0,0,0.08641975308641976,64.64197530864197,0)" xlink:href="#cb"/><use transform="matrix(0.08641975308641976,0,0,0.08641975308641976,70.51851851851852,0)" xlink:href="#aZ"/></g></defs></g></svg>